  0
SECTION
  2
ENTITIES
  0
LINE
 10
-152.400000
 11
-152.099000
 20
0.000000
 21
9.569000
  0
LINE
 10
-152.099000
 11
-151.198000
 20
9.569000
 21
19.101000
  0
LINE
 10
-151.198000
 11
-149.701000
 20
19.101000
 21
28.557000
  0
LINE
 10
-149.701000
 11
-147.612000
 20
28.557000
 21
37.900000
  0
LINE
 10
-147.612000
 11
-144.941000
 20
37.900000
 21
47.094000
  0
LINE
 10
-144.941000
 11
-141.698000
 20
47.094000
 21
56.102000
  0
LINE
 10
-141.698000
 11
-137.896000
 20
56.102000
 21
64.889000
  0
LINE
 10
-137.896000
 11
-133.549000
 20
64.889000
 21
73.419000
  0
LINE
 10
-133.549000
 11
-128.676000
 20
73.419000
 21
81.660000
  0
LINE
 10
-128.676000
 11
-123.294000
 20
81.660000
 21
89.578000
  0
LINE
 10
-123.294000
 11
-117.426000
 20
89.578000
 21
97.143000
  0
LINE
 10
-117.426000
 11
-111.095000
 20
97.143000
 21
104.325000
  0
LINE
 10
-111.095000
 11
-104.325000
 20
104.325000
 21
111.095000
  0
LINE
 10
-104.325000
 11
-97.143000
 20
111.095000
 21
117.426000
  0
LINE
 10
-97.143000
 11
-89.578000
 20
117.426000
 21
123.294000
  0
LINE
 10
-89.578000
 11
-81.660000
 20
123.294000
 21
128.676000
  0
LINE
 10
-81.660000
 11
-73.419000
 20
128.676000
 21
133.549000
  0
LINE
 10
-73.419000
 11
-64.889000
 20
133.549000
 21
137.896000
  0
LINE
 10
-64.889000
 11
-56.102000
 20
137.896000
 21
141.698000
  0
LINE
 10
-56.102000
 11
-47.094000
 20
141.698000
 21
144.941000
  0
LINE
 10
-47.094000
 11
-37.900000
 20
144.941000
 21
147.612000
  0
LINE
 10
-37.900000
 11
-28.557000
 20
147.612000
 21
149.701000
  0
LINE
 10
-28.557000
 11
-19.101000
 20
149.701000
 21
151.198000
  0
LINE
 10
-19.101000
 11
-9.569000
 20
151.198000
 21
152.099000
  0
LINE
 10
-9.569000
 11
0.000000
 20
152.099000
 21
152.400000
  0
LINE
 10
0.000000
 11
9.569000
 20
152.400000
 21
152.099000
  0
LINE
 10
9.569000
 11
19.101000
 20
152.099000
 21
151.198000
  0
LINE
 10
19.101000
 11
28.557000
 20
151.198000
 21
149.701000
  0
LINE
 10
28.557000
 11
37.900000
 20
149.701000
 21
147.612000
  0
LINE
 10
37.900000
 11
47.094000
 20
147.612000
 21
144.941000
  0
LINE
 10
47.094000
 11
56.102000
 20
144.941000
 21
141.698000
  0
LINE
 10
56.102000
 11
64.889000
 20
141.698000
 21
137.896000
  0
LINE
 10
64.889000
 11
73.419000
 20
137.896000
 21
133.549000
  0
LINE
 10
73.419000
 11
81.660000
 20
133.549000
 21
128.676000
  0
LINE
 10
81.660000
 11
89.578000
 20
128.676000
 21
123.294000
  0
LINE
 10
89.578000
 11
97.143000
 20
123.294000
 21
117.426000
  0
LINE
 10
97.143000
 11
104.325000
 20
117.426000
 21
111.095000
  0
LINE
 10
104.325000
 11
111.095000
 20
111.095000
 21
104.325000
  0
LINE
 10
111.095000
 11
117.426000
 20
104.325000
 21
97.143000
  0
LINE
 10
117.426000
 11
123.294000
 20
97.143000
 21
89.578000
  0
LINE
 10
123.294000
 11
128.676000
 20
89.578000
 21
81.660000
  0
LINE
 10
128.676000
 11
133.549000
 20
81.660000
 21
73.419000
  0
LINE
 10
133.549000
 11
137.896000
 20
73.419000
 21
64.889000
  0
LINE
 10
137.896000
 11
141.698000
 20
64.889000
 21
56.102000
  0
LINE
 10
141.698000
 11
144.941000
 20
56.102000
 21
47.094000
  0
LINE
 10
144.941000
 11
147.612000
 20
47.094000
 21
37.900000
  0
LINE
 10
147.612000
 11
149.701000
 20
37.900000
 21
28.557000
  0
LINE
 10
149.701000
 11
151.198000
 20
28.557000
 21
19.101000
  0
LINE
 10
151.198000
 11
152.099000
 20
19.101000
 21
9.569000
  0
LINE
 10
152.099000
 11
152.400000
 20
9.569000
 21
0.000000
  0
LINE
 10
152.400000
 11
152.099000
 20
0.000000
 21
-9.569000
  0
LINE
 10
152.099000
 11
151.323000
 20
-9.569000
 21
-17.780000
  0
LINE
 10
151.323000
 11
151.257000
 20
-17.780000
 21
-17.780000
  0
LINE
 10
151.257000
 11
151.232000
 20
-17.780000
 21
-18.577000
  0
LINE
 10
151.232000
 11
151.157000
 20
-18.577000
 21
-19.372000
  0
LINE
 10
151.157000
 11
151.032000
 20
-19.372000
 21
-20.160000
  0
LINE
 10
151.032000
 11
150.858000
 20
-20.160000
 21
-20.938000
  0
LINE
 10
150.858000
 11
150.635000
 20
-20.938000
 21
-21.705000
  0
LINE
 10
150.635000
 11
150.365000
 20
-21.705000
 21
-22.455000
  0
LINE
 10
150.365000
 11
150.048000
 20
-22.455000
 21
-23.187000
  0
LINE
 10
150.048000
 11
149.686000
 20
-23.187000
 21
-23.898000
  0
LINE
 10
149.686000
 11
149.280000
 20
-23.898000
 21
-24.585000
  0
LINE
 10
149.280000
 11
148.832000
 20
-24.585000
 21
-25.245000
  0
LINE
 10
148.832000
 11
148.343000
 20
-25.245000
 21
-25.875000
  0
LINE
 10
148.343000
 11
147.815000
 20
-25.875000
 21
-26.474000
  0
LINE
 10
147.815000
 11
147.251000
 20
-26.474000
 21
-27.038000
  0
LINE
 10
147.251000
 11
146.652000
 20
-27.038000
 21
-27.566000
  0
LINE
 10
146.652000
 11
146.022000
 20
-27.566000
 21
-28.055000
  0
LINE
 10
146.022000
 11
145.362000
 20
-28.055000
 21
-28.503000
  0
LINE
 10
145.362000
 11
144.675000
 20
-28.503000
 21
-28.909000
  0
LINE
 10
144.675000
 11
143.964000
 20
-28.909000
 21
-29.271000
  0
LINE
 10
143.964000
 11
143.232000
 20
-29.271000
 21
-29.588000
  0
LINE
 10
143.232000
 11
142.482000
 20
-29.588000
 21
-29.858000
  0
LINE
 10
142.482000
 11
141.715000
 20
-29.858000
 21
-30.081000
  0
LINE
 10
141.715000
 11
140.937000
 20
-30.081000
 21
-30.255000
  0
LINE
 10
140.937000
 11
140.149000
 20
-30.255000
 21
-30.380000
  0
LINE
 10
140.149000
 11
139.354000
 20
-30.380000
 21
-30.455000
  0
LINE
 10
139.354000
 11
138.557000
 20
-30.455000
 21
-30.480000
  0
LINE
 10
138.557000
 11
137.760000
 20
-30.480000
 21
-30.455000
  0
LINE
 10
137.760000
 11
136.965000
 20
-30.455000
 21
-30.380000
  0
LINE
 10
136.965000
 11
136.177000
 20
-30.380000
 21
-30.255000
  0
LINE
 10
136.177000
 11
135.399000
 20
-30.255000
 21
-30.081000
  0
LINE
 10
135.399000
 11
134.632000
 20
-30.081000
 21
-29.858000
  0
LINE
 10
134.632000
 11
133.882000
 20
-29.858000
 21
-29.588000
  0
LINE
 10
133.882000
 11
133.150000
 20
-29.588000
 21
-29.271000
  0
LINE
 10
133.150000
 11
132.439000
 20
-29.271000
 21
-28.909000
  0
LINE
 10
132.439000
 11
131.752000
 20
-28.909000
 21
-28.503000
  0
LINE
 10
131.752000
 11
131.092000
 20
-28.503000
 21
-28.055000
  0
LINE
 10
131.092000
 11
130.462000
 20
-28.055000
 21
-27.566000
  0
LINE
 10
130.462000
 11
129.863000
 20
-27.566000
 21
-27.038000
  0
LINE
 10
129.863000
 11
129.299000
 20
-27.038000
 21
-26.474000
  0
LINE
 10
129.299000
 11
128.771000
 20
-26.474000
 21
-25.875000
  0
LINE
 10
128.771000
 11
128.282000
 20
-25.875000
 21
-25.245000
  0
LINE
 10
128.282000
 11
127.834000
 20
-25.245000
 21
-24.585000
  0
LINE
 10
127.834000
 11
127.428000
 20
-24.585000
 21
-23.898000
  0
LINE
 10
127.428000
 11
127.066000
 20
-23.898000
 21
-23.187000
  0
LINE
 10
127.066000
 11
126.749000
 20
-23.187000
 21
-22.455000
  0
LINE
 10
126.749000
 11
126.479000
 20
-22.455000
 21
-21.705000
  0
LINE
 10
126.479000
 11
126.256000
 20
-21.705000
 21
-20.938000
  0
LINE
 10
126.256000
 11
126.082000
 20
-20.938000
 21
-20.160000
  0
LINE
 10
126.082000
 11
125.957000
 20
-20.160000
 21
-19.372000
  0
LINE
 10
125.957000
 11
125.882000
 20
-19.372000
 21
-18.577000
  0
LINE
 10
125.882000
 11
125.857000
 20
-18.577000
 21
-17.780000
  0
LINE
 10
125.857000
 11
125.704000
 20
-17.780000
 21
-17.780000
  0
LINE
 10
125.704000
 11
125.786000
 20
-17.780000
 21
-17.261000
  0
LINE
 10
125.786000
 11
125.685000
 20
-17.261000
 21
-16.808000
  0
LINE
 10
125.685000
 11
125.518000
 20
-16.808000
 21
-16.234000
  0
LINE
 10
125.518000
 11
125.315000
 20
-16.234000
 21
-15.671000
  0
LINE
 10
125.315000
 11
125.077000
 20
-15.671000
 21
-15.121000
  0
LINE
 10
125.077000
 11
124.806000
 20
-15.121000
 21
-14.588000
  0
LINE
 10
124.806000
 11
124.501000
 20
-14.588000
 21
-14.073000
  0
LINE
 10
124.501000
 11
124.165000
 20
-14.073000
 21
-13.578000
  0
LINE
 10
124.165000
 11
123.798000
 20
-13.578000
 21
-13.106000
  0
LINE
 10
123.798000
 11
123.402000
 20
-13.106000
 21
-12.657000
  0
LINE
 10
123.402000
 11
122.979000
 20
-12.657000
 21
-12.234000
  0
LINE
 10
122.979000
 11
122.530000
 20
-12.234000
 21
-11.838000
  0
LINE
 10
122.530000
 11
122.058000
 20
-11.838000
 21
-11.471000
  0
LINE
 10
122.058000
 11
121.563000
 20
-11.471000
 21
-11.135000
  0
LINE
 10
121.563000
 11
121.048000
 20
-11.135000
 21
-10.830000
  0
LINE
 10
121.048000
 11
120.515000
 20
-10.830000
 21
-10.559000
  0
LINE
 10
120.515000
 11
119.965000
 20
-10.559000
 21
-10.321000
  0
LINE
 10
119.965000
 11
119.402000
 20
-10.321000
 21
-10.118000
  0
LINE
 10
119.402000
 11
118.828000
 20
-10.118000
 21
-9.951000
  0
LINE
 10
118.828000
 11
118.244000
 20
-9.951000
 21
-9.821000
  0
LINE
 10
118.244000
 11
117.895000
 20
-9.821000
 21
-9.766000
  0
LINE
 10
117.895000
 11
31.713000
 20
-9.766000
 21
-16.050000
  0
LINE
 10
31.713000
 11
31.161000
 20
-16.050000
 21
-17.131000
  0
LINE
 10
31.161000
 11
30.024000
 20
-17.131000
 21
-19.054000
  0
LINE
 10
30.024000
 11
28.769000
 20
-19.054000
 21
-20.902000
  0
LINE
 10
28.769000
 11
27.399000
 20
-20.902000
 21
-22.667000
  0
LINE
 10
27.399000
 11
25.922000
 20
-22.667000
 21
-24.342000
  0
LINE
 10
25.922000
 11
24.342000
 20
-24.342000
 21
-25.922000
  0
LINE
 10
24.342000
 11
22.667000
 20
-25.922000
 21
-27.399000
  0
LINE
 10
22.667000
 11
20.902000
 20
-27.399000
 21
-28.769000
  0
LINE
 10
20.902000
 11
19.054000
 20
-28.769000
 21
-30.024000
  0
LINE
 10
19.054000
 11
17.131000
 20
-30.024000
 21
-31.161000
  0
LINE
 10
17.131000
 11
15.141000
 20
-31.161000
 21
-32.176000
  0
LINE
 10
15.141000
 11
13.091000
 20
-32.176000
 21
-33.063000
  0
LINE
 10
13.091000
 11
10.989000
 20
-33.063000
 21
-33.820000
  0
LINE
 10
10.989000
 11
8.843000
 20
-33.820000
 21
-34.443000
  0
LINE
 10
8.843000
 11
6.663000
 20
-34.443000
 21
-34.930000
  0
LINE
 10
6.663000
 11
4.457000
 20
-34.930000
 21
-35.280000
  0
LINE
 10
4.457000
 11
2.233000
 20
-35.280000
 21
-35.490000
  0
LINE
 10
2.233000
 11
0.000000
 20
-35.490000
 21
-35.560000
  0
LINE
 10
0.000000
 11
-2.233000
 20
-35.560000
 21
-35.490000
  0
LINE
 10
-2.233000
 11
-4.457000
 20
-35.490000
 21
-35.280000
  0
LINE
 10
-4.457000
 11
-6.663000
 20
-35.280000
 21
-34.930000
  0
LINE
 10
-6.663000
 11
-8.843000
 20
-34.930000
 21
-34.443000
  0
LINE
 10
-8.843000
 11
-10.989000
 20
-34.443000
 21
-33.820000
  0
LINE
 10
-10.989000
 11
-13.091000
 20
-33.820000
 21
-33.063000
  0
LINE
 10
-13.091000
 11
-15.141000
 20
-33.063000
 21
-32.176000
  0
LINE
 10
-15.141000
 11
-17.131000
 20
-32.176000
 21
-31.161000
  0
LINE
 10
-17.131000
 11
-19.054000
 20
-31.161000
 21
-30.024000
  0
LINE
 10
-19.054000
 11
-20.902000
 20
-30.024000
 21
-28.769000
  0
LINE
 10
-20.902000
 11
-22.667000
 20
-28.769000
 21
-27.399000
  0
LINE
 10
-22.667000
 11
-24.342000
 20
-27.399000
 21
-25.922000
  0
LINE
 10
-24.342000
 11
-25.922000
 20
-25.922000
 21
-24.342000
  0
LINE
 10
-25.922000
 11
-27.399000
 20
-24.342000
 21
-22.667000
  0
LINE
 10
-27.399000
 11
-28.769000
 20
-22.667000
 21
-20.902000
  0
LINE
 10
-28.769000
 11
-30.024000
 20
-20.902000
 21
-19.054000
  0
LINE
 10
-30.024000
 11
-31.161000
 20
-19.054000
 21
-17.131000
  0
LINE
 10
-31.161000
 11
-31.713000
 20
-17.131000
 21
-16.050000
  0
LINE
 10
-31.713000
 11
-117.895000
 20
-16.050000
 21
-9.766000
  0
LINE
 10
-117.895000
 11
-118.244000
 20
-9.766000
 21
-9.821000
  0
LINE
 10
-118.244000
 11
-118.828000
 20
-9.821000
 21
-9.951000
  0
LINE
 10
-118.828000
 11
-119.402000
 20
-9.951000
 21
-10.118000
  0
LINE
 10
-119.402000
 11
-119.965000
 20
-10.118000
 21
-10.321000
  0
LINE
 10
-119.965000
 11
-120.515000
 20
-10.321000
 21
-10.559000
  0
LINE
 10
-120.515000
 11
-121.048000
 20
-10.559000
 21
-10.830000
  0
LINE
 10
-121.048000
 11
-121.563000
 20
-10.830000
 21
-11.135000
  0
LINE
 10
-121.563000
 11
-122.058000
 20
-11.135000
 21
-11.471000
  0
LINE
 10
-122.058000
 11
-122.530000
 20
-11.471000
 21
-11.838000
  0
LINE
 10
-122.530000
 11
-122.979000
 20
-11.838000
 21
-12.234000
  0
LINE
 10
-122.979000
 11
-123.402000
 20
-12.234000
 21
-12.657000
  0
LINE
 10
-123.402000
 11
-123.798000
 20
-12.657000
 21
-13.106000
  0
LINE
 10
-123.798000
 11
-124.165000
 20
-13.106000
 21
-13.578000
  0
LINE
 10
-124.165000
 11
-124.501000
 20
-13.578000
 21
-14.073000
  0
LINE
 10
-124.501000
 11
-124.806000
 20
-14.073000
 21
-14.588000
  0
LINE
 10
-124.806000
 11
-125.077000
 20
-14.588000
 21
-15.121000
  0
LINE
 10
-125.077000
 11
-125.315000
 20
-15.121000
 21
-15.671000
  0
LINE
 10
-125.315000
 11
-125.518000
 20
-15.671000
 21
-16.234000
  0
LINE
 10
-125.518000
 11
-125.685000
 20
-16.234000
 21
-16.808000
  0
LINE
 10
-125.685000
 11
-125.786000
 20
-16.808000
 21
-17.261000
  0
LINE
 10
-125.786000
 11
-125.704000
 20
-17.261000
 21
-17.780000
  0
LINE
 10
-125.704000
 11
-125.857000
 20
-17.780000
 21
-17.780000
  0
LINE
 10
-125.857000
 11
-125.882000
 20
-17.780000
 21
-18.577000
  0
LINE
 10
-125.882000
 11
-125.957000
 20
-18.577000
 21
-19.372000
  0
LINE
 10
-125.957000
 11
-126.082000
 20
-19.372000
 21
-20.160000
  0
LINE
 10
-126.082000
 11
-126.256000
 20
-20.160000
 21
-20.938000
  0
LINE
 10
-126.256000
 11
-126.479000
 20
-20.938000
 21
-21.705000
  0
LINE
 10
-126.479000
 11
-126.749000
 20
-21.705000
 21
-22.455000
  0
LINE
 10
-126.749000
 11
-127.066000
 20
-22.455000
 21
-23.187000
  0
LINE
 10
-127.066000
 11
-127.428000
 20
-23.187000
 21
-23.898000
  0
LINE
 10
-127.428000
 11
-127.834000
 20
-23.898000
 21
-24.585000
  0
LINE
 10
-127.834000
 11
-128.282000
 20
-24.585000
 21
-25.245000
  0
LINE
 10
-128.282000
 11
-128.771000
 20
-25.245000
 21
-25.875000
  0
LINE
 10
-128.771000
 11
-129.299000
 20
-25.875000
 21
-26.474000
  0
LINE
 10
-129.299000
 11
-129.863000
 20
-26.474000
 21
-27.038000
  0
LINE
 10
-129.863000
 11
-130.462000
 20
-27.038000
 21
-27.566000
  0
LINE
 10
-130.462000
 11
-131.092000
 20
-27.566000
 21
-28.055000
  0
LINE
 10
-131.092000
 11
-131.752000
 20
-28.055000
 21
-28.503000
  0
LINE
 10
-131.752000
 11
-132.439000
 20
-28.503000
 21
-28.909000
  0
LINE
 10
-132.439000
 11
-133.150000
 20
-28.909000
 21
-29.271000
  0
LINE
 10
-133.150000
 11
-133.882000
 20
-29.271000
 21
-29.588000
  0
LINE
 10
-133.882000
 11
-134.632000
 20
-29.588000
 21
-29.858000
  0
LINE
 10
-134.632000
 11
-135.399000
 20
-29.858000
 21
-30.081000
  0
LINE
 10
-135.399000
 11
-136.177000
 20
-30.081000
 21
-30.255000
  0
LINE
 10
-136.177000
 11
-136.965000
 20
-30.255000
 21
-30.380000
  0
LINE
 10
-136.965000
 11
-137.760000
 20
-30.380000
 21
-30.455000
  0
LINE
 10
-137.760000
 11
-138.557000
 20
-30.455000
 21
-30.480000
  0
LINE
 10
-138.557000
 11
-139.354000
 20
-30.480000
 21
-30.455000
  0
LINE
 10
-139.354000
 11
-140.149000
 20
-30.455000
 21
-30.380000
  0
LINE
 10
-140.149000
 11
-140.937000
 20
-30.380000
 21
-30.255000
  0
LINE
 10
-140.937000
 11
-141.715000
 20
-30.255000
 21
-30.081000
  0
LINE
 10
-141.715000
 11
-142.482000
 20
-30.081000
 21
-29.858000
  0
LINE
 10
-142.482000
 11
-143.232000
 20
-29.858000
 21
-29.588000
  0
LINE
 10
-143.232000
 11
-143.964000
 20
-29.588000
 21
-29.271000
  0
LINE
 10
-143.964000
 11
-144.675000
 20
-29.271000
 21
-28.909000
  0
LINE
 10
-144.675000
 11
-145.362000
 20
-28.909000
 21
-28.503000
  0
LINE
 10
-145.362000
 11
-146.022000
 20
-28.503000
 21
-28.055000
  0
LINE
 10
-146.022000
 11
-146.652000
 20
-28.055000
 21
-27.566000
  0
LINE
 10
-146.652000
 11
-147.251000
 20
-27.566000
 21
-27.038000
  0
LINE
 10
-147.251000
 11
-147.815000
 20
-27.038000
 21
-26.474000
  0
LINE
 10
-147.815000
 11
-148.343000
 20
-26.474000
 21
-25.875000
  0
LINE
 10
-148.343000
 11
-148.832000
 20
-25.875000
 21
-25.245000
  0
LINE
 10
-148.832000
 11
-149.280000
 20
-25.245000
 21
-24.585000
  0
LINE
 10
-149.280000
 11
-149.686000
 20
-24.585000
 21
-23.898000
  0
LINE
 10
-149.686000
 11
-150.048000
 20
-23.898000
 21
-23.187000
  0
LINE
 10
-150.048000
 11
-150.365000
 20
-23.187000
 21
-22.455000
  0
LINE
 10
-150.365000
 11
-150.635000
 20
-22.455000
 21
-21.705000
  0
LINE
 10
-150.635000
 11
-150.858000
 20
-21.705000
 21
-20.938000
  0
LINE
 10
-150.858000
 11
-151.032000
 20
-20.938000
 21
-20.160000
  0
LINE
 10
-151.032000
 11
-151.157000
 20
-20.160000
 21
-19.372000
  0
LINE
 10
-151.157000
 11
-151.232000
 20
-19.372000
 21
-18.577000
  0
LINE
 10
-151.232000
 11
-151.257000
 20
-18.577000
 21
-17.780000
  0
LINE
 10
-151.257000
 11
-151.323000
 20
-17.780000
 21
-17.780000
  0
LINE
 10
-151.323000
 11
-152.099000
 20
-17.780000
 21
-9.569000
  0
LINE
 10
-152.099000
 11
-152.400000
 20
-9.569000
 21
0.000000
  0
LINE
 10
-142.081000
 11
-142.077000
 20
0.000000
 21
0.150000
  0
LINE
 10
-142.077000
 11
-142.062000
 20
0.150000
 21
0.298000
  0
LINE
 10
-142.062000
 11
-142.039000
 20
0.298000
 21
0.446000
  0
LINE
 10
-142.039000
 11
-142.006000
 20
0.446000
 21
0.592000
  0
LINE
 10
-142.006000
 11
-141.965000
 20
0.592000
 21
0.736000
  0
LINE
 10
-141.965000
 11
-141.914000
 20
0.736000
 21
0.877000
  0
LINE
 10
-141.914000
 11
-141.855000
 20
0.877000
 21
1.014000
  0
LINE
 10
-141.855000
 11
-141.787000
 20
1.014000
 21
1.147000
  0
LINE
 10
-141.787000
 11
-141.711000
 20
1.147000
 21
1.276000
  0
LINE
 10
-141.711000
 11
-141.626000
 20
1.276000
 21
1.400000
  0
LINE
 10
-141.626000
 11
-141.535000
 20
1.400000
 21
1.518000
  0
LINE
 10
-141.535000
 11
-141.436000
 20
1.518000
 21
1.630000
  0
LINE
 10
-141.436000
 11
-141.330000
 20
1.630000
 21
1.736000
  0
LINE
 10
-141.330000
 11
-141.218000
 20
1.736000
 21
1.835000
  0
LINE
 10
-141.218000
 11
-141.100000
 20
1.835000
 21
1.926000
  0
LINE
 10
-141.100000
 11
-140.976000
 20
1.926000
 21
2.011000
  0
LINE
 10
-140.976000
 11
-140.847000
 20
2.011000
 21
2.087000
  0
LINE
 10
-140.847000
 11
-140.714000
 20
2.087000
 21
2.155000
  0
LINE
 10
-140.714000
 11
-140.577000
 20
2.155000
 21
2.214000
  0
LINE
 10
-140.577000
 11
-140.436000
 20
2.214000
 21
2.265000
  0
LINE
 10
-140.436000
 11
-140.292000
 20
2.265000
 21
2.306000
  0
LINE
 10
-140.292000
 11
-140.146000
 20
2.306000
 21
2.339000
  0
LINE
 10
-140.146000
 11
-139.998000
 20
2.339000
 21
2.362000
  0
LINE
 10
-139.998000
 11
-139.850000
 20
2.362000
 21
2.377000
  0
LINE
 10
-139.850000
 11
-139.700000
 20
2.377000
 21
2.381000
  0
LINE
 10
-139.700000
 11
-139.550000
 20
2.381000
 21
2.377000
  0
LINE
 10
-139.550000
 11
-139.402000
 20
2.377000
 21
2.362000
  0
LINE
 10
-139.402000
 11
-139.254000
 20
2.362000
 21
2.339000
  0
LINE
 10
-139.254000
 11
-139.108000
 20
2.339000
 21
2.306000
  0
LINE
 10
-139.108000
 11
-138.964000
 20
2.306000
 21
2.265000
  0
LINE
 10
-138.964000
 11
-138.823000
 20
2.265000
 21
2.214000
  0
LINE
 10
-138.823000
 11
-138.686000
 20
2.214000
 21
2.155000
  0
LINE
 10
-138.686000
 11
-138.553000
 20
2.155000
 21
2.087000
  0
LINE
 10
-138.553000
 11
-138.424000
 20
2.087000
 21
2.011000
  0
LINE
 10
-138.424000
 11
-138.300000
 20
2.011000
 21
1.926000
  0
LINE
 10
-138.300000
 11
-138.182000
 20
1.926000
 21
1.835000
  0
LINE
 10
-138.182000
 11
-138.070000
 20
1.835000
 21
1.736000
  0
LINE
 10
-138.070000
 11
-137.964000
 20
1.736000
 21
1.630000
  0
LINE
 10
-137.964000
 11
-137.865000
 20
1.630000
 21
1.518000
  0
LINE
 10
-137.865000
 11
-137.774000
 20
1.518000
 21
1.400000
  0
LINE
 10
-137.774000
 11
-137.689000
 20
1.400000
 21
1.276000
  0
LINE
 10
-137.689000
 11
-137.613000
 20
1.276000
 21
1.147000
  0
LINE
 10
-137.613000
 11
-137.545000
 20
1.147000
 21
1.014000
  0
LINE
 10
-137.545000
 11
-137.486000
 20
1.014000
 21
0.877000
  0
LINE
 10
-137.486000
 11
-137.435000
 20
0.877000
 21
0.736000
  0
LINE
 10
-137.435000
 11
-137.394000
 20
0.736000
 21
0.592000
  0
LINE
 10
-137.394000
 11
-137.361000
 20
0.592000
 21
0.446000
  0
LINE
 10
-137.361000
 11
-137.338000
 20
0.446000
 21
0.298000
  0
LINE
 10
-137.338000
 11
-137.323000
 20
0.298000
 21
0.150000
  0
LINE
 10
-137.323000
 11
-137.319000
 20
0.150000
 21
0.000000
  0
LINE
 10
-137.319000
 11
-137.323000
 20
0.000000
 21
-0.150000
  0
LINE
 10
-137.323000
 11
-137.338000
 20
-0.150000
 21
-0.298000
  0
LINE
 10
-137.338000
 11
-137.361000
 20
-0.298000
 21
-0.446000
  0
LINE
 10
-137.361000
 11
-137.394000
 20
-0.446000
 21
-0.592000
  0
LINE
 10
-137.394000
 11
-137.435000
 20
-0.592000
 21
-0.736000
  0
LINE
 10
-137.435000
 11
-137.486000
 20
-0.736000
 21
-0.877000
  0
LINE
 10
-137.486000
 11
-137.545000
 20
-0.877000
 21
-1.014000
  0
LINE
 10
-137.545000
 11
-137.613000
 20
-1.014000
 21
-1.147000
  0
LINE
 10
-137.613000
 11
-137.689000
 20
-1.147000
 21
-1.276000
  0
LINE
 10
-137.689000
 11
-137.774000
 20
-1.276000
 21
-1.400000
  0
LINE
 10
-137.774000
 11
-137.865000
 20
-1.400000
 21
-1.518000
  0
LINE
 10
-137.865000
 11
-137.964000
 20
-1.518000
 21
-1.630000
  0
LINE
 10
-137.964000
 11
-138.070000
 20
-1.630000
 21
-1.736000
  0
LINE
 10
-138.070000
 11
-138.182000
 20
-1.736000
 21
-1.835000
  0
LINE
 10
-138.182000
 11
-138.300000
 20
-1.835000
 21
-1.926000
  0
LINE
 10
-138.300000
 11
-138.424000
 20
-1.926000
 21
-2.011000
  0
LINE
 10
-138.424000
 11
-138.553000
 20
-2.011000
 21
-2.087000
  0
LINE
 10
-138.553000
 11
-138.686000
 20
-2.087000
 21
-2.155000
  0
LINE
 10
-138.686000
 11
-138.823000
 20
-2.155000
 21
-2.214000
  0
LINE
 10
-138.823000
 11
-138.964000
 20
-2.214000
 21
-2.265000
  0
LINE
 10
-138.964000
 11
-139.108000
 20
-2.265000
 21
-2.306000
  0
LINE
 10
-139.108000
 11
-139.254000
 20
-2.306000
 21
-2.339000
  0
LINE
 10
-139.254000
 11
-139.402000
 20
-2.339000
 21
-2.362000
  0
LINE
 10
-139.402000
 11
-139.550000
 20
-2.362000
 21
-2.377000
  0
LINE
 10
-139.550000
 11
-139.700000
 20
-2.377000
 21
-2.381000
  0
LINE
 10
-139.700000
 11
-139.850000
 20
-2.381000
 21
-2.377000
  0
LINE
 10
-139.850000
 11
-139.998000
 20
-2.377000
 21
-2.362000
  0
LINE
 10
-139.998000
 11
-140.146000
 20
-2.362000
 21
-2.339000
  0
LINE
 10
-140.146000
 11
-140.292000
 20
-2.339000
 21
-2.306000
  0
LINE
 10
-140.292000
 11
-140.436000
 20
-2.306000
 21
-2.265000
  0
LINE
 10
-140.436000
 11
-140.577000
 20
-2.265000
 21
-2.214000
  0
LINE
 10
-140.577000
 11
-140.714000
 20
-2.214000
 21
-2.155000
  0
LINE
 10
-140.714000
 11
-140.847000
 20
-2.155000
 21
-2.087000
  0
LINE
 10
-140.847000
 11
-140.976000
 20
-2.087000
 21
-2.011000
  0
LINE
 10
-140.976000
 11
-141.100000
 20
-2.011000
 21
-1.926000
  0
LINE
 10
-141.100000
 11
-141.218000
 20
-1.926000
 21
-1.835000
  0
LINE
 10
-141.218000
 11
-141.330000
 20
-1.835000
 21
-1.736000
  0
LINE
 10
-141.330000
 11
-141.436000
 20
-1.736000
 21
-1.630000
  0
LINE
 10
-141.436000
 11
-141.535000
 20
-1.630000
 21
-1.518000
  0
LINE
 10
-141.535000
 11
-141.626000
 20
-1.518000
 21
-1.400000
  0
LINE
 10
-141.626000
 11
-141.711000
 20
-1.400000
 21
-1.276000
  0
LINE
 10
-141.711000
 11
-141.787000
 20
-1.276000
 21
-1.147000
  0
LINE
 10
-141.787000
 11
-141.855000
 20
-1.147000
 21
-1.014000
  0
LINE
 10
-141.855000
 11
-141.914000
 20
-1.014000
 21
-0.877000
  0
LINE
 10
-141.914000
 11
-141.965000
 20
-0.877000
 21
-0.736000
  0
LINE
 10
-141.965000
 11
-142.006000
 20
-0.736000
 21
-0.592000
  0
LINE
 10
-142.006000
 11
-142.039000
 20
-0.592000
 21
-0.446000
  0
LINE
 10
-142.039000
 11
-142.062000
 20
-0.446000
 21
-0.298000
  0
LINE
 10
-142.062000
 11
-142.077000
 20
-0.298000
 21
-0.150000
  0
LINE
 10
-142.077000
 11
-142.081000
 20
-0.150000
 21
0.000000
  0
LINE
 10
-131.447000
 11
-131.440000
 20
53.498000
 21
53.648000
  0
LINE
 10
-131.440000
 11
-131.423000
 20
53.648000
 21
53.796000
  0
LINE
 10
-131.423000
 11
-131.398000
 20
53.796000
 21
53.944000
  0
LINE
 10
-131.398000
 11
-131.362000
 20
53.944000
 21
54.089000
  0
LINE
 10
-131.362000
 11
-131.319000
 20
54.089000
 21
54.232000
  0
LINE
 10
-131.319000
 11
-131.266000
 20
54.232000
 21
54.372000
  0
LINE
 10
-131.266000
 11
-131.205000
 20
54.372000
 21
54.509000
  0
LINE
 10
-131.205000
 11
-131.134000
 20
54.509000
 21
54.640000
  0
LINE
 10
-131.134000
 11
-131.056000
 20
54.640000
 21
54.768000
  0
LINE
 10
-131.056000
 11
-130.970000
 20
54.768000
 21
54.890000
  0
LINE
 10
-130.970000
 11
-130.877000
 20
54.890000
 21
55.008000
  0
LINE
 10
-130.877000
 11
-130.776000
 20
55.008000
 21
55.118000
  0
LINE
 10
-130.776000
 11
-130.669000
 20
55.118000
 21
55.222000
  0
LINE
 10
-130.669000
 11
-130.555000
 20
55.222000
 21
55.319000
  0
LINE
 10
-130.555000
 11
-130.436000
 20
55.319000
 21
55.409000
  0
LINE
 10
-130.436000
 11
-130.310000
 20
55.409000
 21
55.491000
  0
LINE
 10
-130.310000
 11
-130.180000
 20
55.491000
 21
55.566000
  0
LINE
 10
-130.180000
 11
-130.046000
 20
55.566000
 21
55.631000
  0
LINE
 10
-130.046000
 11
-129.908000
 20
55.631000
 21
55.689000
  0
LINE
 10
-129.908000
 11
-129.766000
 20
55.689000
 21
55.737000
  0
LINE
 10
-129.766000
 11
-129.622000
 20
55.737000
 21
55.776000
  0
LINE
 10
-129.622000
 11
-129.475000
 20
55.776000
 21
55.807000
  0
LINE
 10
-129.475000
 11
-129.327000
 20
55.807000
 21
55.828000
  0
LINE
 10
-129.327000
 11
-129.178000
 20
55.828000
 21
55.840000
  0
LINE
 10
-129.178000
 11
-129.029000
 20
55.840000
 21
55.842000
  0
LINE
 10
-129.029000
 11
-128.879000
 20
55.842000
 21
55.835000
  0
LINE
 10
-128.879000
 11
-128.730000
 20
55.835000
 21
55.818000
  0
LINE
 10
-128.730000
 11
-128.583000
 20
55.818000
 21
55.793000
  0
LINE
 10
-128.583000
 11
-128.437000
 20
55.793000
 21
55.757000
  0
LINE
 10
-128.437000
 11
-128.295000
 20
55.757000
 21
55.714000
  0
LINE
 10
-128.295000
 11
-128.155000
 20
55.714000
 21
55.661000
  0
LINE
 10
-128.155000
 11
-128.018000
 20
55.661000
 21
55.600000
  0
LINE
 10
-128.018000
 11
-127.887000
 20
55.600000
 21
55.529000
  0
LINE
 10
-127.887000
 11
-127.759000
 20
55.529000
 21
55.451000
  0
LINE
 10
-127.759000
 11
-127.637000
 20
55.451000
 21
55.365000
  0
LINE
 10
-127.637000
 11
-127.519000
 20
55.365000
 21
55.272000
  0
LINE
 10
-127.519000
 11
-127.408000
 20
55.272000
 21
55.171000
  0
LINE
 10
-127.408000
 11
-127.304000
 20
55.171000
 21
55.064000
  0
LINE
 10
-127.304000
 11
-127.208000
 20
55.064000
 21
54.950000
  0
LINE
 10
-127.208000
 11
-127.118000
 20
54.950000
 21
54.830000
  0
LINE
 10
-127.118000
 11
-127.035000
 20
54.830000
 21
54.705000
  0
LINE
 10
-127.035000
 11
-126.961000
 20
54.705000
 21
54.575000
  0
LINE
 10
-126.961000
 11
-126.896000
 20
54.575000
 21
54.441000
  0
LINE
 10
-126.896000
 11
-126.838000
 20
54.441000
 21
54.302000
  0
LINE
 10
-126.838000
 11
-126.790000
 20
54.302000
 21
54.161000
  0
LINE
 10
-126.790000
 11
-126.751000
 20
54.161000
 21
54.017000
  0
LINE
 10
-126.751000
 11
-126.720000
 20
54.017000
 21
53.870000
  0
LINE
 10
-126.720000
 11
-126.699000
 20
53.870000
 21
53.722000
  0
LINE
 10
-126.699000
 11
-126.687000
 20
53.722000
 21
53.573000
  0
LINE
 10
-126.687000
 11
-126.685000
 20
53.573000
 21
53.424000
  0
LINE
 10
-126.685000
 11
-126.692000
 20
53.424000
 21
53.274000
  0
LINE
 10
-126.692000
 11
-126.709000
 20
53.274000
 21
53.125000
  0
LINE
 10
-126.709000
 11
-126.734000
 20
53.125000
 21
52.978000
  0
LINE
 10
-126.734000
 11
-126.770000
 20
52.978000
 21
52.832000
  0
LINE
 10
-126.770000
 11
-126.813000
 20
52.832000
 21
52.690000
  0
LINE
 10
-126.813000
 11
-126.866000
 20
52.690000
 21
52.550000
  0
LINE
 10
-126.866000
 11
-126.927000
 20
52.550000
 21
52.413000
  0
LINE
 10
-126.927000
 11
-126.998000
 20
52.413000
 21
52.282000
  0
LINE
 10
-126.998000
 11
-127.076000
 20
52.282000
 21
52.154000
  0
LINE
 10
-127.076000
 11
-127.162000
 20
52.154000
 21
52.031000
  0
LINE
 10
-127.162000
 11
-127.255000
 20
52.031000
 21
51.914000
  0
LINE
 10
-127.255000
 11
-127.356000
 20
51.914000
 21
51.803000
  0
LINE
 10
-127.356000
 11
-127.463000
 20
51.803000
 21
51.699000
  0
LINE
 10
-127.463000
 11
-127.577000
 20
51.699000
 21
51.603000
  0
LINE
 10
-127.577000
 11
-127.696000
 20
51.603000
 21
51.512000
  0
LINE
 10
-127.696000
 11
-127.822000
 20
51.512000
 21
51.430000
  0
LINE
 10
-127.822000
 11
-127.952000
 20
51.430000
 21
51.356000
  0
LINE
 10
-127.952000
 11
-128.086000
 20
51.356000
 21
51.291000
  0
LINE
 10
-128.086000
 11
-128.224000
 20
51.291000
 21
51.233000
  0
LINE
 10
-128.224000
 11
-128.366000
 20
51.233000
 21
51.185000
  0
LINE
 10
-128.366000
 11
-128.510000
 20
51.185000
 21
51.146000
  0
LINE
 10
-128.510000
 11
-128.657000
 20
51.146000
 21
51.115000
  0
LINE
 10
-128.657000
 11
-128.805000
 20
51.115000
 21
51.094000
  0
LINE
 10
-128.805000
 11
-128.954000
 20
51.094000
 21
51.082000
  0
LINE
 10
-128.954000
 11
-129.103000
 20
51.082000
 21
51.080000
  0
LINE
 10
-129.103000
 11
-129.253000
 20
51.080000
 21
51.087000
  0
LINE
 10
-129.253000
 11
-129.402000
 20
51.087000
 21
51.104000
  0
LINE
 10
-129.402000
 11
-129.549000
 20
51.104000
 21
51.129000
  0
LINE
 10
-129.549000
 11
-129.695000
 20
51.129000
 21
51.165000
  0
LINE
 10
-129.695000
 11
-129.837000
 20
51.165000
 21
51.207000
  0
LINE
 10
-129.837000
 11
-129.977000
 20
51.207000
 21
51.261000
  0
LINE
 10
-129.977000
 11
-130.114000
 20
51.261000
 21
51.322000
  0
LINE
 10
-130.114000
 11
-130.245000
 20
51.322000
 21
51.393000
  0
LINE
 10
-130.245000
 11
-130.373000
 20
51.393000
 21
51.471000
  0
LINE
 10
-130.373000
 11
-130.495000
 20
51.471000
 21
51.557000
  0
LINE
 10
-130.495000
 11
-130.613000
 20
51.557000
 21
51.650000
  0
LINE
 10
-130.613000
 11
-130.723000
 20
51.650000
 21
51.751000
  0
LINE
 10
-130.723000
 11
-130.827000
 20
51.751000
 21
51.858000
  0
LINE
 10
-130.827000
 11
-130.924000
 20
51.858000
 21
51.972000
  0
LINE
 10
-130.924000
 11
-131.014000
 20
51.972000
 21
52.091000
  0
LINE
 10
-131.014000
 11
-131.096000
 20
52.091000
 21
52.217000
  0
LINE
 10
-131.096000
 11
-131.171000
 20
52.217000
 21
52.346000
  0
LINE
 10
-131.171000
 11
-131.236000
 20
52.346000
 21
52.481000
  0
LINE
 10
-131.236000
 11
-131.294000
 20
52.481000
 21
52.619000
  0
LINE
 10
-131.294000
 11
-131.342000
 20
52.619000
 21
52.761000
  0
LINE
 10
-131.342000
 11
-131.381000
 20
52.761000
 21
52.904000
  0
LINE
 10
-131.381000
 11
-131.412000
 20
52.904000
 21
53.052000
  0
LINE
 10
-131.412000
 11
-131.433000
 20
53.052000
 21
53.200000
  0
LINE
 10
-131.433000
 11
-131.445000
 20
53.200000
 21
53.349000
  0
LINE
 10
-131.445000
 11
-131.447000
 20
53.349000
 21
53.498000
  0
LINE
 10
-125.482000
 11
-124.750000
 20
19.177000
 21
23.797000
  0
LINE
 10
-124.750000
 11
-123.010000
 20
23.797000
 21
31.584000
  0
LINE
 10
-123.010000
 11
-120.784000
 20
31.584000
 21
39.245000
  0
LINE
 10
-120.784000
 11
-118.082000
 20
39.245000
 21
46.752000
  0
LINE
 10
-118.082000
 11
-114.913000
 20
46.752000
 21
54.074000
  0
LINE
 10
-114.913000
 11
-111.291000
 20
54.074000
 21
61.183000
  0
LINE
 10
-111.291000
 11
-107.230000
 20
61.183000
 21
68.050000
  0
LINE
 10
-107.230000
 11
-102.745000
 20
68.050000
 21
74.649000
  0
LINE
 10
-102.745000
 11
-97.855000
 20
74.649000
 21
80.953000
  0
LINE
 10
-97.855000
 11
-92.579000
 20
80.953000
 21
86.937000
  0
LINE
 10
-92.579000
 11
-86.937000
 20
86.937000
 21
92.579000
  0
LINE
 10
-86.937000
 11
-80.953000
 20
92.579000
 21
97.855000
  0
LINE
 10
-80.953000
 11
-74.649000
 20
97.855000
 21
102.745000
  0
LINE
 10
-74.649000
 11
-68.050000
 20
102.745000
 21
107.230000
  0
LINE
 10
-68.050000
 11
-61.183000
 20
107.230000
 21
111.291000
  0
LINE
 10
-61.183000
 11
-54.074000
 20
111.291000
 21
114.913000
  0
LINE
 10
-54.074000
 11
-46.752000
 20
114.913000
 21
118.082000
  0
LINE
 10
-46.752000
 11
-39.245000
 20
118.082000
 21
120.784000
  0
LINE
 10
-39.245000
 11
-31.584000
 20
120.784000
 21
123.010000
  0
LINE
 10
-31.584000
 11
-23.797000
 20
123.010000
 21
124.750000
  0
LINE
 10
-23.797000
 11
-19.177000
 20
124.750000
 21
125.482000
  0
LINE
 10
-19.177000
 11
-19.177000
 20
125.482000
 21
125.476000
  0
LINE
 10
-19.177000
 11
-18.579000
 20
125.476000
 21
125.457000
  0
LINE
 10
-18.579000
 11
-17.983000
 20
125.457000
 21
125.401000
  0
LINE
 10
-17.983000
 11
-17.392000
 20
125.401000
 21
125.307000
  0
LINE
 10
-17.392000
 11
-16.808000
 20
125.307000
 21
125.177000
  0
LINE
 10
-16.808000
 11
-16.234000
 20
125.177000
 21
125.010000
  0
LINE
 10
-16.234000
 11
-15.671000
 20
125.010000
 21
124.807000
  0
LINE
 10
-15.671000
 11
-15.121000
 20
124.807000
 21
124.569000
  0
LINE
 10
-15.121000
 11
-14.588000
 20
124.569000
 21
124.298000
  0
LINE
 10
-14.588000
 11
-14.073000
 20
124.298000
 21
123.993000
  0
LINE
 10
-14.073000
 11
-13.578000
 20
123.993000
 21
123.657000
  0
LINE
 10
-13.578000
 11
-13.106000
 20
123.657000
 21
123.290000
  0
LINE
 10
-13.106000
 11
-12.657000
 20
123.290000
 21
122.894000
  0
LINE
 10
-12.657000
 11
-12.234000
 20
122.894000
 21
122.471000
  0
LINE
 10
-12.234000
 11
-11.838000
 20
122.471000
 21
122.022000
  0
LINE
 10
-11.838000
 11
-11.471000
 20
122.022000
 21
121.550000
  0
LINE
 10
-11.471000
 11
-11.135000
 20
121.550000
 21
121.055000
  0
LINE
 10
-11.135000
 11
-10.830000
 20
121.055000
 21
120.540000
  0
LINE
 10
-10.830000
 11
-10.559000
 20
120.540000
 21
120.007000
  0
LINE
 10
-10.559000
 11
-10.321000
 20
120.007000
 21
119.457000
  0
LINE
 10
-10.321000
 11
-10.118000
 20
119.457000
 21
118.894000
  0
LINE
 10
-10.118000
 11
-9.951000
 20
118.894000
 21
118.320000
  0
LINE
 10
-9.951000
 11
-9.821000
 20
118.320000
 21
117.736000
  0
LINE
 10
-9.821000
 11
-9.791000
 20
117.736000
 21
117.547000
  0
LINE
 10
-9.791000
 11
-16.050000
 20
117.547000
 21
31.713000
  0
LINE
 10
-16.050000
 11
-17.131000
 20
31.713000
 21
31.161000
  0
LINE
 10
-17.131000
 11
-19.054000
 20
31.161000
 21
30.024000
  0
LINE
 10
-19.054000
 11
-20.902000
 20
30.024000
 21
28.769000
  0
LINE
 10
-20.902000
 11
-22.667000
 20
28.769000
 21
27.399000
  0
LINE
 10
-22.667000
 11
-24.342000
 20
27.399000
 21
25.922000
  0
LINE
 10
-24.342000
 11
-25.922000
 20
25.922000
 21
24.342000
  0
LINE
 10
-25.922000
 11
-27.399000
 20
24.342000
 21
22.667000
  0
LINE
 10
-27.399000
 11
-28.769000
 20
22.667000
 21
20.902000
  0
LINE
 10
-28.769000
 11
-30.024000
 20
20.902000
 21
19.054000
  0
LINE
 10
-30.024000
 11
-31.161000
 20
19.054000
 21
17.131000
  0
LINE
 10
-31.161000
 11
-31.713000
 20
17.131000
 21
16.050000
  0
LINE
 10
-31.713000
 11
-117.547000
 20
16.050000
 21
9.791000
  0
LINE
 10
-117.547000
 11
-117.736000
 20
9.791000
 21
9.821000
  0
LINE
 10
-117.736000
 11
-118.320000
 20
9.821000
 21
9.951000
  0
LINE
 10
-118.320000
 11
-118.894000
 20
9.951000
 21
10.118000
  0
LINE
 10
-118.894000
 11
-119.457000
 20
10.118000
 21
10.321000
  0
LINE
 10
-119.457000
 11
-120.007000
 20
10.321000
 21
10.559000
  0
LINE
 10
-120.007000
 11
-120.540000
 20
10.559000
 21
10.830000
  0
LINE
 10
-120.540000
 11
-121.055000
 20
10.830000
 21
11.135000
  0
LINE
 10
-121.055000
 11
-121.550000
 20
11.135000
 21
11.471000
  0
LINE
 10
-121.550000
 11
-122.022000
 20
11.471000
 21
11.838000
  0
LINE
 10
-122.022000
 11
-122.471000
 20
11.838000
 21
12.234000
  0
LINE
 10
-122.471000
 11
-122.894000
 20
12.234000
 21
12.657000
  0
LINE
 10
-122.894000
 11
-123.290000
 20
12.657000
 21
13.106000
  0
LINE
 10
-123.290000
 11
-123.657000
 20
13.106000
 21
13.578000
  0
LINE
 10
-123.657000
 11
-123.993000
 20
13.578000
 21
14.073000
  0
LINE
 10
-123.993000
 11
-124.298000
 20
14.073000
 21
14.588000
  0
LINE
 10
-124.298000
 11
-124.569000
 20
14.588000
 21
15.121000
  0
LINE
 10
-124.569000
 11
-124.807000
 20
15.121000
 21
15.671000
  0
LINE
 10
-124.807000
 11
-125.010000
 20
15.671000
 21
16.234000
  0
LINE
 10
-125.010000
 11
-125.177000
 20
16.234000
 21
16.808000
  0
LINE
 10
-125.177000
 11
-125.307000
 20
16.808000
 21
17.392000
  0
LINE
 10
-125.307000
 11
-125.401000
 20
17.392000
 21
17.983000
  0
LINE
 10
-125.401000
 11
-125.457000
 20
17.983000
 21
18.579000
  0
LINE
 10
-125.457000
 11
-125.476000
 20
18.579000
 21
19.177000
  0
LINE
 10
-125.476000
 11
-125.482000
 20
19.177000
 21
19.177000
  0
LINE
 10
-101.163000
 11
-101.163000
 20
98.708000
 21
98.858000
  0
LINE
 10
-101.163000
 11
-101.154000
 20
98.858000
 21
99.007000
  0
LINE
 10
-101.154000
 11
-101.135000
 20
99.007000
 21
99.155000
  0
LINE
 10
-101.135000
 11
-101.107000
 20
99.155000
 21
99.303000
  0
LINE
 10
-101.107000
 11
-101.070000
 20
99.303000
 21
99.447000
  0
LINE
 10
-101.070000
 11
-101.024000
 20
99.447000
 21
99.590000
  0
LINE
 10
-101.024000
 11
-100.968000
 20
99.590000
 21
99.728000
  0
LINE
 10
-100.968000
 11
-100.905000
 20
99.728000
 21
99.864000
  0
LINE
 10
-100.905000
 11
-100.832000
 20
99.864000
 21
99.995000
  0
LINE
 10
-100.832000
 11
-100.752000
 20
99.995000
 21
100.121000
  0
LINE
 10
-100.752000
 11
-100.664000
 20
100.121000
 21
100.242000
  0
LINE
 10
-100.664000
 11
-100.570000
 20
100.242000
 21
100.358000
  0
LINE
 10
-100.570000
 11
-100.466000
 20
100.358000
 21
100.466000
  0
LINE
 10
-100.466000
 11
-100.358000
 20
100.466000
 21
100.570000
  0
LINE
 10
-100.358000
 11
-100.242000
 20
100.570000
 21
100.664000
  0
LINE
 10
-100.242000
 11
-100.121000
 20
100.664000
 21
100.752000
  0
LINE
 10
-100.121000
 11
-99.995000
 20
100.752000
 21
100.832000
  0
LINE
 10
-99.995000
 11
-99.864000
 20
100.832000
 21
100.905000
  0
LINE
 10
-99.864000
 11
-99.728000
 20
100.905000
 21
100.968000
  0
LINE
 10
-99.728000
 11
-99.590000
 20
100.968000
 21
101.024000
  0
LINE
 10
-99.590000
 11
-99.447000
 20
101.024000
 21
101.070000
  0
LINE
 10
-99.447000
 11
-99.303000
 20
101.070000
 21
101.107000
  0
LINE
 10
-99.303000
 11
-99.155000
 20
101.107000
 21
101.135000
  0
LINE
 10
-99.155000
 11
-99.007000
 20
101.135000
 21
101.154000
  0
LINE
 10
-99.007000
 11
-98.858000
 20
101.154000
 21
101.163000
  0
LINE
 10
-98.858000
 11
-98.708000
 20
101.163000
 21
101.163000
  0
LINE
 10
-98.708000
 11
-98.559000
 20
101.163000
 21
101.154000
  0
LINE
 10
-98.559000
 11
-98.411000
 20
101.154000
 21
101.135000
  0
LINE
 10
-98.411000
 11
-98.263000
 20
101.135000
 21
101.107000
  0
LINE
 10
-98.263000
 11
-98.118000
 20
101.107000
 21
101.070000
  0
LINE
 10
-98.118000
 11
-97.976000
 20
101.070000
 21
101.024000
  0
LINE
 10
-97.976000
 11
-97.837000
 20
101.024000
 21
100.968000
  0
LINE
 10
-97.837000
 11
-97.702000
 20
100.968000
 21
100.905000
  0
LINE
 10
-97.702000
 11
-97.571000
 20
100.905000
 21
100.832000
  0
LINE
 10
-97.571000
 11
-97.444000
 20
100.832000
 21
100.752000
  0
LINE
 10
-97.444000
 11
-97.323000
 20
100.752000
 21
100.664000
  0
LINE
 10
-97.323000
 11
-97.208000
 20
100.664000
 21
100.570000
  0
LINE
 10
-97.208000
 11
-97.099000
 20
100.570000
 21
100.466000
  0
LINE
 10
-97.099000
 11
-96.996000
 20
100.466000
 21
100.358000
  0
LINE
 10
-96.996000
 11
-96.902000
 20
100.358000
 21
100.242000
  0
LINE
 10
-96.902000
 11
-96.814000
 20
100.242000
 21
100.121000
  0
LINE
 10
-96.814000
 11
-96.734000
 20
100.121000
 21
99.995000
  0
LINE
 10
-96.734000
 11
-96.661000
 20
99.995000
 21
99.864000
  0
LINE
 10
-96.661000
 11
-96.597000
 20
99.864000
 21
99.728000
  0
LINE
 10
-96.597000
 11
-96.542000
 20
99.728000
 21
99.590000
  0
LINE
 10
-96.542000
 11
-96.496000
 20
99.590000
 21
99.447000
  0
LINE
 10
-96.496000
 11
-96.459000
 20
99.447000
 21
99.303000
  0
LINE
 10
-96.459000
 11
-96.431000
 20
99.303000
 21
99.155000
  0
LINE
 10
-96.431000
 11
-96.412000
 20
99.155000
 21
99.007000
  0
LINE
 10
-96.412000
 11
-96.403000
 20
99.007000
 21
98.858000
  0
LINE
 10
-96.403000
 11
-96.403000
 20
98.858000
 21
98.708000
  0
LINE
 10
-96.403000
 11
-96.412000
 20
98.708000
 21
98.559000
  0
LINE
 10
-96.412000
 11
-96.431000
 20
98.559000
 21
98.411000
  0
LINE
 10
-96.431000
 11
-96.459000
 20
98.411000
 21
98.263000
  0
LINE
 10
-96.459000
 11
-96.496000
 20
98.263000
 21
98.118000
  0
LINE
 10
-96.496000
 11
-96.542000
 20
98.118000
 21
97.976000
  0
LINE
 10
-96.542000
 11
-96.597000
 20
97.976000
 21
97.837000
  0
LINE
 10
-96.597000
 11
-96.661000
 20
97.837000
 21
97.702000
  0
LINE
 10
-96.661000
 11
-96.734000
 20
97.702000
 21
97.571000
  0
LINE
 10
-96.734000
 11
-96.814000
 20
97.571000
 21
97.444000
  0
LINE
 10
-96.814000
 11
-96.902000
 20
97.444000
 21
97.323000
  0
LINE
 10
-96.902000
 11
-96.996000
 20
97.323000
 21
97.208000
  0
LINE
 10
-96.996000
 11
-97.099000
 20
97.208000
 21
97.099000
  0
LINE
 10
-97.099000
 11
-97.208000
 20
97.099000
 21
96.996000
  0
LINE
 10
-97.208000
 11
-97.323000
 20
96.996000
 21
96.902000
  0
LINE
 10
-97.323000
 11
-97.444000
 20
96.902000
 21
96.814000
  0
LINE
 10
-97.444000
 11
-97.571000
 20
96.814000
 21
96.734000
  0
LINE
 10
-97.571000
 11
-97.702000
 20
96.734000
 21
96.661000
  0
LINE
 10
-97.702000
 11
-97.837000
 20
96.661000
 21
96.597000
  0
LINE
 10
-97.837000
 11
-97.976000
 20
96.597000
 21
96.542000
  0
LINE
 10
-97.976000
 11
-98.118000
 20
96.542000
 21
96.496000
  0
LINE
 10
-98.118000
 11
-98.263000
 20
96.496000
 21
96.459000
  0
LINE
 10
-98.263000
 11
-98.411000
 20
96.459000
 21
96.431000
  0
LINE
 10
-98.411000
 11
-98.559000
 20
96.431000
 21
96.412000
  0
LINE
 10
-98.559000
 11
-98.708000
 20
96.412000
 21
96.403000
  0
LINE
 10
-98.708000
 11
-98.858000
 20
96.403000
 21
96.403000
  0
LINE
 10
-98.858000
 11
-99.007000
 20
96.403000
 21
96.412000
  0
LINE
 10
-99.007000
 11
-99.155000
 20
96.412000
 21
96.431000
  0
LINE
 10
-99.155000
 11
-99.303000
 20
96.431000
 21
96.459000
  0
LINE
 10
-99.303000
 11
-99.447000
 20
96.459000
 21
96.496000
  0
LINE
 10
-99.447000
 11
-99.590000
 20
96.496000
 21
96.542000
  0
LINE
 10
-99.590000
 11
-99.728000
 20
96.542000
 21
96.597000
  0
LINE
 10
-99.728000
 11
-99.864000
 20
96.597000
 21
96.661000
  0
LINE
 10
-99.864000
 11
-99.995000
 20
96.661000
 21
96.734000
  0
LINE
 10
-99.995000
 11
-100.121000
 20
96.734000
 21
96.814000
  0
LINE
 10
-100.121000
 11
-100.242000
 20
96.814000
 21
96.902000
  0
LINE
 10
-100.242000
 11
-100.358000
 20
96.902000
 21
96.996000
  0
LINE
 10
-100.358000
 11
-100.466000
 20
96.996000
 21
97.099000
  0
LINE
 10
-100.466000
 11
-100.570000
 20
97.099000
 21
97.208000
  0
LINE
 10
-100.570000
 11
-100.664000
 20
97.208000
 21
97.323000
  0
LINE
 10
-100.664000
 11
-100.752000
 20
97.323000
 21
97.444000
  0
LINE
 10
-100.752000
 11
-100.832000
 20
97.444000
 21
97.571000
  0
LINE
 10
-100.832000
 11
-100.905000
 20
97.571000
 21
97.702000
  0
LINE
 10
-100.905000
 11
-100.968000
 20
97.702000
 21
97.837000
  0
LINE
 10
-100.968000
 11
-101.024000
 20
97.837000
 21
97.976000
  0
LINE
 10
-101.024000
 11
-101.070000
 20
97.976000
 21
98.118000
  0
LINE
 10
-101.070000
 11
-101.107000
 20
98.118000
 21
98.263000
  0
LINE
 10
-101.107000
 11
-101.135000
 20
98.263000
 21
98.411000
  0
LINE
 10
-101.135000
 11
-101.154000
 20
98.411000
 21
98.559000
  0
LINE
 10
-101.154000
 11
-101.163000
 20
98.559000
 21
98.708000
  0
LINE
 10
-55.842000
 11
-55.840000
 20
129.029000
 21
129.178000
  0
LINE
 10
-55.840000
 11
-55.828000
 20
129.178000
 21
129.327000
  0
LINE
 10
-55.828000
 11
-55.807000
 20
129.327000
 21
129.475000
  0
LINE
 10
-55.807000
 11
-55.776000
 20
129.475000
 21
129.622000
  0
LINE
 10
-55.776000
 11
-55.737000
 20
129.622000
 21
129.766000
  0
LINE
 10
-55.737000
 11
-55.689000
 20
129.766000
 21
129.908000
  0
LINE
 10
-55.689000
 11
-55.631000
 20
129.908000
 21
130.046000
  0
LINE
 10
-55.631000
 11
-55.566000
 20
130.046000
 21
130.180000
  0
LINE
 10
-55.566000
 11
-55.491000
 20
130.180000
 21
130.310000
  0
LINE
 10
-55.491000
 11
-55.409000
 20
130.310000
 21
130.436000
  0
LINE
 10
-55.409000
 11
-55.319000
 20
130.436000
 21
130.555000
  0
LINE
 10
-55.319000
 11
-55.222000
 20
130.555000
 21
130.669000
  0
LINE
 10
-55.222000
 11
-55.118000
 20
130.669000
 21
130.776000
  0
LINE
 10
-55.118000
 11
-55.008000
 20
130.776000
 21
130.877000
  0
LINE
 10
-55.008000
 11
-54.890000
 20
130.877000
 21
130.970000
  0
LINE
 10
-54.890000
 11
-54.768000
 20
130.970000
 21
131.056000
  0
LINE
 10
-54.768000
 11
-54.640000
 20
131.056000
 21
131.134000
  0
LINE
 10
-54.640000
 11
-54.509000
 20
131.134000
 21
131.205000
  0
LINE
 10
-54.509000
 11
-54.372000
 20
131.205000
 21
131.266000
  0
LINE
 10
-54.372000
 11
-54.232000
 20
131.266000
 21
131.319000
  0
LINE
 10
-54.232000
 11
-54.089000
 20
131.319000
 21
131.362000
  0
LINE
 10
-54.089000
 11
-53.944000
 20
131.362000
 21
131.398000
  0
LINE
 10
-53.944000
 11
-53.796000
 20
131.398000
 21
131.423000
  0
LINE
 10
-53.796000
 11
-53.648000
 20
131.423000
 21
131.440000
  0
LINE
 10
-53.648000
 11
-53.498000
 20
131.440000
 21
131.447000
  0
LINE
 10
-53.498000
 11
-53.349000
 20
131.447000
 21
131.445000
  0
LINE
 10
-53.349000
 11
-53.200000
 20
131.445000
 21
131.433000
  0
LINE
 10
-53.200000
 11
-53.052000
 20
131.433000
 21
131.412000
  0
LINE
 10
-53.052000
 11
-52.904000
 20
131.412000
 21
131.381000
  0
LINE
 10
-52.904000
 11
-52.761000
 20
131.381000
 21
131.342000
  0
LINE
 10
-52.761000
 11
-52.619000
 20
131.342000
 21
131.294000
  0
LINE
 10
-52.619000
 11
-52.481000
 20
131.294000
 21
131.236000
  0
LINE
 10
-52.481000
 11
-52.346000
 20
131.236000
 21
131.171000
  0
LINE
 10
-52.346000
 11
-52.217000
 20
131.171000
 21
131.096000
  0
LINE
 10
-52.217000
 11
-52.091000
 20
131.096000
 21
131.014000
  0
LINE
 10
-52.091000
 11
-51.972000
 20
131.014000
 21
130.924000
  0
LINE
 10
-51.972000
 11
-51.858000
 20
130.924000
 21
130.827000
  0
LINE
 10
-51.858000
 11
-51.751000
 20
130.827000
 21
130.723000
  0
LINE
 10
-51.751000
 11
-51.650000
 20
130.723000
 21
130.613000
  0
LINE
 10
-51.650000
 11
-51.557000
 20
130.613000
 21
130.495000
  0
LINE
 10
-51.557000
 11
-51.471000
 20
130.495000
 21
130.373000
  0
LINE
 10
-51.471000
 11
-51.393000
 20
130.373000
 21
130.245000
  0
LINE
 10
-51.393000
 11
-51.322000
 20
130.245000
 21
130.114000
  0
LINE
 10
-51.322000
 11
-51.261000
 20
130.114000
 21
129.977000
  0
LINE
 10
-51.261000
 11
-51.207000
 20
129.977000
 21
129.837000
  0
LINE
 10
-51.207000
 11
-51.165000
 20
129.837000
 21
129.695000
  0
LINE
 10
-51.165000
 11
-51.129000
 20
129.695000
 21
129.549000
  0
LINE
 10
-51.129000
 11
-51.104000
 20
129.549000
 21
129.402000
  0
LINE
 10
-51.104000
 11
-51.087000
 20
129.402000
 21
129.253000
  0
LINE
 10
-51.087000
 11
-51.080000
 20
129.253000
 21
129.103000
  0
LINE
 10
-51.080000
 11
-51.082000
 20
129.103000
 21
128.954000
  0
LINE
 10
-51.082000
 11
-51.094000
 20
128.954000
 21
128.805000
  0
LINE
 10
-51.094000
 11
-51.115000
 20
128.805000
 21
128.657000
  0
LINE
 10
-51.115000
 11
-51.146000
 20
128.657000
 21
128.510000
  0
LINE
 10
-51.146000
 11
-51.185000
 20
128.510000
 21
128.366000
  0
LINE
 10
-51.185000
 11
-51.233000
 20
128.366000
 21
128.224000
  0
LINE
 10
-51.233000
 11
-51.291000
 20
128.224000
 21
128.086000
  0
LINE
 10
-51.291000
 11
-51.356000
 20
128.086000
 21
127.952000
  0
LINE
 10
-51.356000
 11
-51.430000
 20
127.952000
 21
127.822000
  0
LINE
 10
-51.430000
 11
-51.512000
 20
127.822000
 21
127.696000
  0
LINE
 10
-51.512000
 11
-51.603000
 20
127.696000
 21
127.577000
  0
LINE
 10
-51.603000
 11
-51.699000
 20
127.577000
 21
127.463000
  0
LINE
 10
-51.699000
 11
-51.803000
 20
127.463000
 21
127.356000
  0
LINE
 10
-51.803000
 11
-51.914000
 20
127.356000
 21
127.255000
  0
LINE
 10
-51.914000
 11
-52.031000
 20
127.255000
 21
127.162000
  0
LINE
 10
-52.031000
 11
-52.154000
 20
127.162000
 21
127.076000
  0
LINE
 10
-52.154000
 11
-52.282000
 20
127.076000
 21
126.998000
  0
LINE
 10
-52.282000
 11
-52.413000
 20
126.998000
 21
126.927000
  0
LINE
 10
-52.413000
 11
-52.550000
 20
126.927000
 21
126.866000
  0
LINE
 10
-52.550000
 11
-52.690000
 20
126.866000
 21
126.813000
  0
LINE
 10
-52.690000
 11
-52.832000
 20
126.813000
 21
126.770000
  0
LINE
 10
-52.832000
 11
-52.978000
 20
126.770000
 21
126.734000
  0
LINE
 10
-52.978000
 11
-53.125000
 20
126.734000
 21
126.709000
  0
LINE
 10
-53.125000
 11
-53.274000
 20
126.709000
 21
126.692000
  0
LINE
 10
-53.274000
 11
-53.424000
 20
126.692000
 21
126.685000
  0
LINE
 10
-53.424000
 11
-53.573000
 20
126.685000
 21
126.687000
  0
LINE
 10
-53.573000
 11
-53.722000
 20
126.687000
 21
126.699000
  0
LINE
 10
-53.722000
 11
-53.870000
 20
126.699000
 21
126.720000
  0
LINE
 10
-53.870000
 11
-54.017000
 20
126.720000
 21
126.751000
  0
LINE
 10
-54.017000
 11
-54.161000
 20
126.751000
 21
126.790000
  0
LINE
 10
-54.161000
 11
-54.302000
 20
126.790000
 21
126.838000
  0
LINE
 10
-54.302000
 11
-54.441000
 20
126.838000
 21
126.896000
  0
LINE
 10
-54.441000
 11
-54.575000
 20
126.896000
 21
126.961000
  0
LINE
 10
-54.575000
 11
-54.705000
 20
126.961000
 21
127.035000
  0
LINE
 10
-54.705000
 11
-54.830000
 20
127.035000
 21
127.118000
  0
LINE
 10
-54.830000
 11
-54.950000
 20
127.118000
 21
127.208000
  0
LINE
 10
-54.950000
 11
-55.064000
 20
127.208000
 21
127.304000
  0
LINE
 10
-55.064000
 11
-55.171000
 20
127.304000
 21
127.408000
  0
LINE
 10
-55.171000
 11
-55.272000
 20
127.408000
 21
127.519000
  0
LINE
 10
-55.272000
 11
-55.365000
 20
127.519000
 21
127.637000
  0
LINE
 10
-55.365000
 11
-55.451000
 20
127.637000
 21
127.759000
  0
LINE
 10
-55.451000
 11
-55.529000
 20
127.759000
 21
127.887000
  0
LINE
 10
-55.529000
 11
-55.600000
 20
127.887000
 21
128.018000
  0
LINE
 10
-55.600000
 11
-55.661000
 20
128.018000
 21
128.155000
  0
LINE
 10
-55.661000
 11
-55.714000
 20
128.155000
 21
128.295000
  0
LINE
 10
-55.714000
 11
-55.757000
 20
128.295000
 21
128.437000
  0
LINE
 10
-55.757000
 11
-55.793000
 20
128.437000
 21
128.583000
  0
LINE
 10
-55.793000
 11
-55.818000
 20
128.583000
 21
128.730000
  0
LINE
 10
-55.818000
 11
-55.835000
 20
128.730000
 21
128.879000
  0
LINE
 10
-55.835000
 11
-55.842000
 20
128.879000
 21
129.029000
  0
LINE
 10
-19.800000
 11
-19.797000
 20
-9.594000
 21
-9.387000
  0
LINE
 10
-19.797000
 11
-19.781000
 20
-9.387000
 21
-9.180000
  0
LINE
 10
-19.781000
 11
-19.753000
 20
-9.180000
 21
-8.974000
  0
LINE
 10
-19.753000
 11
-19.712000
 20
-8.974000
 21
-8.771000
  0
LINE
 10
-19.712000
 11
-19.659000
 20
-8.771000
 21
-8.570000
  0
LINE
 10
-19.659000
 11
-19.593000
 20
-8.570000
 21
-8.374000
  0
LINE
 10
-19.593000
 11
-19.514000
 20
-8.374000
 21
-8.182000
  0
LINE
 10
-19.514000
 11
-19.424000
 20
-8.182000
 21
-7.995000
  0
LINE
 10
-19.424000
 11
-19.323000
 20
-7.995000
 21
-7.814000
  0
LINE
 10
-19.323000
 11
-19.209000
 20
-7.814000
 21
-7.640000
  0
LINE
 10
-19.209000
 11
-19.086000
 20
-7.640000
 21
-7.474000
  0
LINE
 10
-19.086000
 11
-18.951000
 20
-7.474000
 21
-7.316000
  0
LINE
 10
-18.951000
 11
-18.808000
 20
-7.316000
 21
-7.166000
  0
LINE
 10
-18.808000
 11
-18.656000
 20
-7.166000
 21
-7.025000
  0
LINE
 10
-18.656000
 11
-18.494000
 20
-7.025000
 21
-6.895000
  0
LINE
 10
-18.494000
 11
-18.325000
 20
-6.895000
 21
-6.775000
  0
LINE
 10
-18.325000
 11
-18.149000
 20
-6.775000
 21
-6.665000
  0
LINE
 10
-18.149000
 11
-17.966000
 20
-6.665000
 21
-6.568000
  0
LINE
 10
-17.966000
 11
-17.777000
 20
-6.568000
 21
-6.481000
  0
LINE
 10
-17.777000
 11
-17.584000
 20
-6.481000
 21
-6.406000
  0
LINE
 10
-17.584000
 11
-17.386000
 20
-6.406000
 21
-6.345000
  0
LINE
 10
-17.386000
 11
-17.184000
 20
-6.345000
 21
-6.296000
  0
LINE
 10
-17.184000
 11
-16.980000
 20
-6.296000
 21
-6.258000
  0
LINE
 10
-16.980000
 11
-16.774000
 20
-6.258000
 21
-6.234000
  0
LINE
 10
-16.774000
 11
-16.567000
 20
-6.234000
 21
-6.223000
  0
LINE
 10
-16.567000
 11
-16.360000
 20
-6.223000
 21
-6.226000
  0
LINE
 10
-16.360000
 11
-16.152000
 20
-6.226000
 21
-6.241000
  0
LINE
 10
-16.152000
 11
-15.947000
 20
-6.241000
 21
-6.269000
  0
LINE
 10
-15.947000
 11
-15.744000
 20
-6.269000
 21
-6.310000
  0
LINE
 10
-15.744000
 11
-15.543000
 20
-6.310000
 21
-6.364000
  0
LINE
 10
-15.543000
 11
-15.347000
 20
-6.364000
 21
-6.430000
  0
LINE
 10
-15.347000
 11
-15.155000
 20
-6.430000
 21
-6.509000
  0
LINE
 10
-15.155000
 11
-14.968000
 20
-6.509000
 21
-6.599000
  0
LINE
 10
-14.968000
 11
-14.787000
 20
-6.599000
 21
-6.700000
  0
LINE
 10
-14.787000
 11
-14.613000
 20
-6.700000
 21
-6.813000
  0
LINE
 10
-14.613000
 11
-14.447000
 20
-6.813000
 21
-6.937000
  0
LINE
 10
-14.447000
 11
-14.288000
 20
-6.937000
 21
-7.072000
  0
LINE
 10
-14.288000
 11
-14.139000
 20
-7.072000
 21
-7.215000
  0
LINE
 10
-14.139000
 11
-13.998000
 20
-7.215000
 21
-7.367000
  0
LINE
 10
-13.998000
 11
-13.868000
 20
-7.367000
 21
-7.528000
  0
LINE
 10
-13.868000
 11
-13.748000
 20
-7.528000
 21
-7.698000
  0
LINE
 10
-13.748000
 11
-13.638000
 20
-7.698000
 21
-7.874000
  0
LINE
 10
-13.638000
 11
-13.541000
 20
-7.874000
 21
-8.057000
  0
LINE
 10
-13.541000
 11
-13.454000
 20
-8.057000
 21
-8.246000
  0
LINE
 10
-13.454000
 11
-13.379000
 20
-8.246000
 21
-8.439000
  0
LINE
 10
-13.379000
 11
-13.318000
 20
-8.439000
 21
-8.637000
  0
LINE
 10
-13.318000
 11
-13.268000
 20
-8.637000
 21
-8.838000
  0
LINE
 10
-13.268000
 11
-13.231000
 20
-8.838000
 21
-9.043000
  0
LINE
 10
-13.231000
 11
-13.207000
 20
-9.043000
 21
-9.249000
  0
LINE
 10
-13.207000
 11
-13.196000
 20
-9.249000
 21
-9.456000
  0
LINE
 10
-13.196000
 11
-13.199000
 20
-9.456000
 21
-9.663000
  0
LINE
 10
-13.199000
 11
-13.214000
 20
-9.663000
 21
-9.870000
  0
LINE
 10
-13.214000
 11
-13.242000
 20
-9.870000
 21
-10.076000
  0
LINE
 10
-13.242000
 11
-13.283000
 20
-10.076000
 21
-10.279000
  0
LINE
 10
-13.283000
 11
-13.337000
 20
-10.279000
 21
-10.480000
  0
LINE
 10
-13.337000
 11
-13.403000
 20
-10.480000
 21
-10.676000
  0
LINE
 10
-13.403000
 11
-13.481000
 20
-10.676000
 21
-10.868000
  0
LINE
 10
-13.481000
 11
-13.572000
 20
-10.868000
 21
-11.055000
  0
LINE
 10
-13.572000
 11
-13.673000
 20
-11.055000
 21
-11.236000
  0
LINE
 10
-13.673000
 11
-13.786000
 20
-11.236000
 21
-11.410000
  0
LINE
 10
-13.786000
 11
-13.910000
 20
-11.410000
 21
-11.576000
  0
LINE
 10
-13.910000
 11
-14.044000
 20
-11.576000
 21
-11.734000
  0
LINE
 10
-14.044000
 11
-14.188000
 20
-11.734000
 21
-11.884000
  0
LINE
 10
-14.188000
 11
-14.340000
 20
-11.884000
 21
-12.025000
  0
LINE
 10
-14.340000
 11
-14.501000
 20
-12.025000
 21
-12.155000
  0
LINE
 10
-14.501000
 11
-14.671000
 20
-12.155000
 21
-12.275000
  0
LINE
 10
-14.671000
 11
-14.847000
 20
-12.275000
 21
-12.385000
  0
LINE
 10
-14.847000
 11
-15.030000
 20
-12.385000
 21
-12.482000
  0
LINE
 10
-15.030000
 11
-15.218000
 20
-12.482000
 21
-12.569000
  0
LINE
 10
-15.218000
 11
-15.412000
 20
-12.569000
 21
-12.644000
  0
LINE
 10
-15.412000
 11
-15.610000
 20
-12.644000
 21
-12.705000
  0
LINE
 10
-15.610000
 11
-15.811000
 20
-12.705000
 21
-12.754000
  0
LINE
 10
-15.811000
 11
-16.016000
 20
-12.754000
 21
-12.792000
  0
LINE
 10
-16.016000
 11
-16.221000
 20
-12.792000
 21
-12.816000
  0
LINE
 10
-16.221000
 11
-16.429000
 20
-12.816000
 21
-12.827000
  0
LINE
 10
-16.429000
 11
-16.636000
 20
-12.827000
 21
-12.824000
  0
LINE
 10
-16.636000
 11
-16.843000
 20
-12.824000
 21
-12.809000
  0
LINE
 10
-16.843000
 11
-17.049000
 20
-12.809000
 21
-12.781000
  0
LINE
 10
-17.049000
 11
-17.252000
 20
-12.781000
 21
-12.740000
  0
LINE
 10
-17.252000
 11
-17.452000
 20
-12.740000
 21
-12.686000
  0
LINE
 10
-17.452000
 11
-17.648000
 20
-12.686000
 21
-12.620000
  0
LINE
 10
-17.648000
 11
-17.840000
 20
-12.620000
 21
-12.541000
  0
LINE
 10
-17.840000
 11
-18.028000
 20
-12.541000
 21
-12.451000
  0
LINE
 10
-18.028000
 11
-18.209000
 20
-12.451000
 21
-12.350000
  0
LINE
 10
-18.209000
 11
-18.382000
 20
-12.350000
 21
-12.237000
  0
LINE
 10
-18.382000
 11
-18.548000
 20
-12.237000
 21
-12.113000
  0
LINE
 10
-18.548000
 11
-18.707000
 20
-12.113000
 21
-11.978000
  0
LINE
 10
-18.707000
 11
-18.857000
 20
-11.978000
 21
-11.835000
  0
LINE
 10
-18.857000
 11
-18.998000
 20
-11.835000
 21
-11.683000
  0
LINE
 10
-18.998000
 11
-19.128000
 20
-11.683000
 21
-11.522000
  0
LINE
 10
-19.128000
 11
-19.248000
 20
-11.522000
 21
-11.352000
  0
LINE
 10
-19.248000
 11
-19.357000
 20
-11.352000
 21
-11.176000
  0
LINE
 10
-19.357000
 11
-19.455000
 20
-11.176000
 21
-10.993000
  0
LINE
 10
-19.455000
 11
-19.542000
 20
-10.993000
 21
-10.804000
  0
LINE
 10
-19.542000
 11
-19.617000
 20
-10.804000
 21
-10.611000
  0
LINE
 10
-19.617000
 11
-19.678000
 20
-10.611000
 21
-10.413000
  0
LINE
 10
-19.678000
 11
-19.727000
 20
-10.413000
 21
-10.212000
  0
LINE
 10
-19.727000
 11
-19.764000
 20
-10.212000
 21
-10.007000
  0
LINE
 10
-19.764000
 11
-19.788000
 20
-10.007000
 21
-9.801000
  0
LINE
 10
-19.788000
 11
-19.800000
 20
-9.801000
 21
-9.594000
  0
LINE
 10
-6.350000
 11
-6.337000
 20
0.000000
 21
0.399000
  0
LINE
 10
-6.337000
 11
-6.300000
 20
0.399000
 21
0.796000
  0
LINE
 10
-6.300000
 11
-6.238000
 20
0.796000
 21
1.190000
  0
LINE
 10
-6.238000
 11
-6.151000
 20
1.190000
 21
1.579000
  0
LINE
 10
-6.151000
 11
-6.039000
 20
1.579000
 21
1.962000
  0
LINE
 10
-6.039000
 11
-5.904000
 20
1.962000
 21
2.338000
  0
LINE
 10
-5.904000
 11
-5.746000
 20
2.338000
 21
2.704000
  0
LINE
 10
-5.746000
 11
-5.565000
 20
2.704000
 21
3.059000
  0
LINE
 10
-5.565000
 11
-5.361000
 20
3.059000
 21
3.403000
  0
LINE
 10
-5.361000
 11
-5.137000
 20
3.403000
 21
3.732000
  0
LINE
 10
-5.137000
 11
-4.893000
 20
3.732000
 21
4.048000
  0
LINE
 10
-4.893000
 11
-4.629000
 20
4.048000
 21
4.347000
  0
LINE
 10
-4.629000
 11
-4.347000
 20
4.347000
 21
4.629000
  0
LINE
 10
-4.347000
 11
-4.048000
 20
4.629000
 21
4.893000
  0
LINE
 10
-4.048000
 11
-3.732000
 20
4.893000
 21
5.137000
  0
LINE
 10
-3.732000
 11
-3.403000
 20
5.137000
 21
5.361000
  0
LINE
 10
-3.403000
 11
-3.059000
 20
5.361000
 21
5.565000
  0
LINE
 10
-3.059000
 11
-2.704000
 20
5.565000
 21
5.746000
  0
LINE
 10
-2.704000
 11
-2.338000
 20
5.746000
 21
5.904000
  0
LINE
 10
-2.338000
 11
-1.962000
 20
5.904000
 21
6.039000
  0
LINE
 10
-1.962000
 11
-1.579000
 20
6.039000
 21
6.151000
  0
LINE
 10
-1.579000
 11
-1.190000
 20
6.151000
 21
6.238000
  0
LINE
 10
-1.190000
 11
-0.796000
 20
6.238000
 21
6.300000
  0
LINE
 10
-0.796000
 11
-0.399000
 20
6.300000
 21
6.337000
  0
LINE
 10
-0.399000
 11
0.000000
 20
6.337000
 21
6.350000
  0
LINE
 10
0.000000
 11
0.399000
 20
6.350000
 21
6.337000
  0
LINE
 10
0.399000
 11
0.796000
 20
6.337000
 21
6.300000
  0
LINE
 10
0.796000
 11
1.190000
 20
6.300000
 21
6.238000
  0
LINE
 10
1.190000
 11
1.579000
 20
6.238000
 21
6.151000
  0
LINE
 10
1.579000
 11
1.962000
 20
6.151000
 21
6.039000
  0
LINE
 10
1.962000
 11
2.338000
 20
6.039000
 21
5.904000
  0
LINE
 10
2.338000
 11
2.704000
 20
5.904000
 21
5.746000
  0
LINE
 10
2.704000
 11
3.059000
 20
5.746000
 21
5.565000
  0
LINE
 10
3.059000
 11
3.403000
 20
5.565000
 21
5.361000
  0
LINE
 10
3.403000
 11
3.732000
 20
5.361000
 21
5.137000
  0
LINE
 10
3.732000
 11
4.048000
 20
5.137000
 21
4.893000
  0
LINE
 10
4.048000
 11
4.347000
 20
4.893000
 21
4.629000
  0
LINE
 10
4.347000
 11
4.629000
 20
4.629000
 21
4.347000
  0
LINE
 10
4.629000
 11
4.893000
 20
4.347000
 21
4.048000
  0
LINE
 10
4.893000
 11
5.137000
 20
4.048000
 21
3.732000
  0
LINE
 10
5.137000
 11
5.361000
 20
3.732000
 21
3.403000
  0
LINE
 10
5.361000
 11
5.565000
 20
3.403000
 21
3.059000
  0
LINE
 10
5.565000
 11
5.746000
 20
3.059000
 21
2.704000
  0
LINE
 10
5.746000
 11
5.904000
 20
2.704000
 21
2.338000
  0
LINE
 10
5.904000
 11
6.039000
 20
2.338000
 21
1.962000
  0
LINE
 10
6.039000
 11
6.151000
 20
1.962000
 21
1.579000
  0
LINE
 10
6.151000
 11
6.238000
 20
1.579000
 21
1.190000
  0
LINE
 10
6.238000
 11
6.300000
 20
1.190000
 21
0.796000
  0
LINE
 10
6.300000
 11
6.337000
 20
0.796000
 21
0.399000
  0
LINE
 10
6.337000
 11
6.350000
 20
0.399000
 21
0.000000
  0
LINE
 10
6.350000
 11
6.337000
 20
0.000000
 21
-0.399000
  0
LINE
 10
6.337000
 11
6.300000
 20
-0.399000
 21
-0.796000
  0
LINE
 10
6.300000
 11
6.238000
 20
-0.796000
 21
-1.190000
  0
LINE
 10
6.238000
 11
6.151000
 20
-1.190000
 21
-1.579000
  0
LINE
 10
6.151000
 11
6.039000
 20
-1.579000
 21
-1.962000
  0
LINE
 10
6.039000
 11
5.904000
 20
-1.962000
 21
-2.338000
  0
LINE
 10
5.904000
 11
5.746000
 20
-2.338000
 21
-2.704000
  0
LINE
 10
5.746000
 11
5.565000
 20
-2.704000
 21
-3.059000
  0
LINE
 10
5.565000
 11
5.361000
 20
-3.059000
 21
-3.403000
  0
LINE
 10
5.361000
 11
5.137000
 20
-3.403000
 21
-3.732000
  0
LINE
 10
5.137000
 11
4.893000
 20
-3.732000
 21
-4.048000
  0
LINE
 10
4.893000
 11
4.629000
 20
-4.048000
 21
-4.347000
  0
LINE
 10
4.629000
 11
4.347000
 20
-4.347000
 21
-4.629000
  0
LINE
 10
4.347000
 11
4.048000
 20
-4.629000
 21
-4.893000
  0
LINE
 10
4.048000
 11
3.732000
 20
-4.893000
 21
-5.137000
  0
LINE
 10
3.732000
 11
3.403000
 20
-5.137000
 21
-5.361000
  0
LINE
 10
3.403000
 11
3.059000
 20
-5.361000
 21
-5.565000
  0
LINE
 10
3.059000
 11
2.704000
 20
-5.565000
 21
-5.746000
  0
LINE
 10
2.704000
 11
2.338000
 20
-5.746000
 21
-5.904000
  0
LINE
 10
2.338000
 11
1.962000
 20
-5.904000
 21
-6.039000
  0
LINE
 10
1.962000
 11
1.579000
 20
-6.039000
 21
-6.151000
  0
LINE
 10
1.579000
 11
1.190000
 20
-6.151000
 21
-6.238000
  0
LINE
 10
1.190000
 11
0.796000
 20
-6.238000
 21
-6.300000
  0
LINE
 10
0.796000
 11
0.399000
 20
-6.300000
 21
-6.337000
  0
LINE
 10
0.399000
 11
0.000000
 20
-6.337000
 21
-6.350000
  0
LINE
 10
0.000000
 11
-0.399000
 20
-6.350000
 21
-6.337000
  0
LINE
 10
-0.399000
 11
-0.796000
 20
-6.337000
 21
-6.300000
  0
LINE
 10
-0.796000
 11
-1.190000
 20
-6.300000
 21
-6.238000
  0
LINE
 10
-1.190000
 11
-1.579000
 20
-6.238000
 21
-6.151000
  0
LINE
 10
-1.579000
 11
-1.962000
 20
-6.151000
 21
-6.039000
  0
LINE
 10
-1.962000
 11
-2.338000
 20
-6.039000
 21
-5.904000
  0
LINE
 10
-2.338000
 11
-2.704000
 20
-5.904000
 21
-5.746000
  0
LINE
 10
-2.704000
 11
-3.059000
 20
-5.746000
 21
-5.565000
  0
LINE
 10
-3.059000
 11
-3.403000
 20
-5.565000
 21
-5.361000
  0
LINE
 10
-3.403000
 11
-3.732000
 20
-5.361000
 21
-5.137000
  0
LINE
 10
-3.732000
 11
-4.048000
 20
-5.137000
 21
-4.893000
  0
LINE
 10
-4.048000
 11
-4.347000
 20
-4.893000
 21
-4.629000
  0
LINE
 10
-4.347000
 11
-4.629000
 20
-4.629000
 21
-4.347000
  0
LINE
 10
-4.629000
 11
-4.893000
 20
-4.347000
 21
-4.048000
  0
LINE
 10
-4.893000
 11
-5.137000
 20
-4.048000
 21
-3.732000
  0
LINE
 10
-5.137000
 11
-5.361000
 20
-3.732000
 21
-3.403000
  0
LINE
 10
-5.361000
 11
-5.565000
 20
-3.403000
 21
-3.059000
  0
LINE
 10
-5.565000
 11
-5.746000
 20
-3.059000
 21
-2.704000
  0
LINE
 10
-5.746000
 11
-5.904000
 20
-2.704000
 21
-2.338000
  0
LINE
 10
-5.904000
 11
-6.039000
 20
-2.338000
 21
-1.962000
  0
LINE
 10
-6.039000
 11
-6.151000
 20
-1.962000
 21
-1.579000
  0
LINE
 10
-6.151000
 11
-6.238000
 20
-1.579000
 21
-1.190000
  0
LINE
 10
-6.238000
 11
-6.300000
 20
-1.190000
 21
-0.796000
  0
LINE
 10
-6.300000
 11
-6.337000
 20
-0.796000
 21
-0.399000
  0
LINE
 10
-6.337000
 11
-6.350000
 20
-0.399000
 21
0.000000
  0
LINE
 10
-3.302000
 11
-3.295000
 20
19.050000
 21
19.257000
  0
LINE
 10
-3.295000
 11
-3.276000
 20
19.257000
 21
19.464000
  0
LINE
 10
-3.276000
 11
-3.244000
 20
19.464000
 21
19.669000
  0
LINE
 10
-3.244000
 11
-3.198000
 20
19.669000
 21
19.871000
  0
LINE
 10
-3.198000
 11
-3.140000
 20
19.871000
 21
20.070000
  0
LINE
 10
-3.140000
 11
-3.070000
 20
20.070000
 21
20.266000
  0
LINE
 10
-3.070000
 11
-2.988000
 20
20.266000
 21
20.456000
  0
LINE
 10
-2.988000
 11
-2.894000
 20
20.456000
 21
20.641000
  0
LINE
 10
-2.894000
 11
-2.788000
 20
20.641000
 21
20.819000
  0
LINE
 10
-2.788000
 11
-2.671000
 20
20.819000
 21
20.991000
  0
LINE
 10
-2.671000
 11
-2.544000
 20
20.991000
 21
21.155000
  0
LINE
 10
-2.544000
 11
-2.407000
 20
21.155000
 21
21.310000
  0
LINE
 10
-2.407000
 11
-2.260000
 20
21.310000
 21
21.457000
  0
LINE
 10
-2.260000
 11
-2.105000
 20
21.457000
 21
21.594000
  0
LINE
 10
-2.105000
 11
-1.941000
 20
21.594000
 21
21.721000
  0
LINE
 10
-1.941000
 11
-1.769000
 20
21.721000
 21
21.838000
  0
LINE
 10
-1.769000
 11
-1.591000
 20
21.838000
 21
21.944000
  0
LINE
 10
-1.591000
 11
-1.406000
 20
21.944000
 21
22.038000
  0
LINE
 10
-1.406000
 11
-1.216000
 20
22.038000
 21
22.120000
  0
LINE
 10
-1.216000
 11
-1.020000
 20
22.120000
 21
22.190000
  0
LINE
 10
-1.020000
 11
-0.821000
 20
22.190000
 21
22.248000
  0
LINE
 10
-0.821000
 11
-0.619000
 20
22.248000
 21
22.294000
  0
LINE
 10
-0.619000
 11
-0.414000
 20
22.294000
 21
22.326000
  0
LINE
 10
-0.414000
 11
-0.207000
 20
22.326000
 21
22.345000
  0
LINE
 10
-0.207000
 11
0.000000
 20
22.345000
 21
22.352000
  0
LINE
 10
0.000000
 11
0.207000
 20
22.352000
 21
22.345000
  0
LINE
 10
0.207000
 11
0.414000
 20
22.345000
 21
22.326000
  0
LINE
 10
0.414000
 11
0.619000
 20
22.326000
 21
22.294000
  0
LINE
 10
0.619000
 11
0.821000
 20
22.294000
 21
22.248000
  0
LINE
 10
0.821000
 11
1.020000
 20
22.248000
 21
22.190000
  0
LINE
 10
1.020000
 11
1.216000
 20
22.190000
 21
22.120000
  0
LINE
 10
1.216000
 11
1.406000
 20
22.120000
 21
22.038000
  0
LINE
 10
1.406000
 11
1.591000
 20
22.038000
 21
21.944000
  0
LINE
 10
1.591000
 11
1.769000
 20
21.944000
 21
21.838000
  0
LINE
 10
1.769000
 11
1.941000
 20
21.838000
 21
21.721000
  0
LINE
 10
1.941000
 11
2.105000
 20
21.721000
 21
21.594000
  0
LINE
 10
2.105000
 11
2.260000
 20
21.594000
 21
21.457000
  0
LINE
 10
2.260000
 11
2.407000
 20
21.457000
 21
21.310000
  0
LINE
 10
2.407000
 11
2.544000
 20
21.310000
 21
21.155000
  0
LINE
 10
2.544000
 11
2.671000
 20
21.155000
 21
20.991000
  0
LINE
 10
2.671000
 11
2.788000
 20
20.991000
 21
20.819000
  0
LINE
 10
2.788000
 11
2.894000
 20
20.819000
 21
20.641000
  0
LINE
 10
2.894000
 11
2.988000
 20
20.641000
 21
20.456000
  0
LINE
 10
2.988000
 11
3.070000
 20
20.456000
 21
20.266000
  0
LINE
 10
3.070000
 11
3.140000
 20
20.266000
 21
20.070000
  0
LINE
 10
3.140000
 11
3.198000
 20
20.070000
 21
19.871000
  0
LINE
 10
3.198000
 11
3.244000
 20
19.871000
 21
19.669000
  0
LINE
 10
3.244000
 11
3.276000
 20
19.669000
 21
19.464000
  0
LINE
 10
3.276000
 11
3.295000
 20
19.464000
 21
19.257000
  0
LINE
 10
3.295000
 11
3.302000
 20
19.257000
 21
19.050000
  0
LINE
 10
3.302000
 11
3.295000
 20
19.050000
 21
18.843000
  0
LINE
 10
3.295000
 11
3.276000
 20
18.843000
 21
18.636000
  0
LINE
 10
3.276000
 11
3.244000
 20
18.636000
 21
18.431000
  0
LINE
 10
3.244000
 11
3.198000
 20
18.431000
 21
18.229000
  0
LINE
 10
3.198000
 11
3.140000
 20
18.229000
 21
18.030000
  0
LINE
 10
3.140000
 11
3.070000
 20
18.030000
 21
17.834000
  0
LINE
 10
3.070000
 11
2.988000
 20
17.834000
 21
17.644000
  0
LINE
 10
2.988000
 11
2.894000
 20
17.644000
 21
17.459000
  0
LINE
 10
2.894000
 11
2.788000
 20
17.459000
 21
17.281000
  0
LINE
 10
2.788000
 11
2.671000
 20
17.281000
 21
17.109000
  0
LINE
 10
2.671000
 11
2.544000
 20
17.109000
 21
16.945000
  0
LINE
 10
2.544000
 11
2.407000
 20
16.945000
 21
16.790000
  0
LINE
 10
2.407000
 11
2.260000
 20
16.790000
 21
16.643000
  0
LINE
 10
2.260000
 11
2.105000
 20
16.643000
 21
16.506000
  0
LINE
 10
2.105000
 11
1.941000
 20
16.506000
 21
16.379000
  0
LINE
 10
1.941000
 11
1.769000
 20
16.379000
 21
16.262000
  0
LINE
 10
1.769000
 11
1.591000
 20
16.262000
 21
16.156000
  0
LINE
 10
1.591000
 11
1.406000
 20
16.156000
 21
16.062000
  0
LINE
 10
1.406000
 11
1.216000
 20
16.062000
 21
15.980000
  0
LINE
 10
1.216000
 11
1.020000
 20
15.980000
 21
15.910000
  0
LINE
 10
1.020000
 11
0.821000
 20
15.910000
 21
15.852000
  0
LINE
 10
0.821000
 11
0.619000
 20
15.852000
 21
15.806000
  0
LINE
 10
0.619000
 11
0.414000
 20
15.806000
 21
15.774000
  0
LINE
 10
0.414000
 11
0.207000
 20
15.774000
 21
15.755000
  0
LINE
 10
0.207000
 11
0.000000
 20
15.755000
 21
15.748000
  0
LINE
 10
0.000000
 11
-0.207000
 20
15.748000
 21
15.755000
  0
LINE
 10
-0.207000
 11
-0.414000
 20
15.755000
 21
15.774000
  0
LINE
 10
-0.414000
 11
-0.619000
 20
15.774000
 21
15.806000
  0
LINE
 10
-0.619000
 11
-0.821000
 20
15.806000
 21
15.852000
  0
LINE
 10
-0.821000
 11
-1.020000
 20
15.852000
 21
15.910000
  0
LINE
 10
-1.020000
 11
-1.216000
 20
15.910000
 21
15.980000
  0
LINE
 10
-1.216000
 11
-1.406000
 20
15.980000
 21
16.062000
  0
LINE
 10
-1.406000
 11
-1.591000
 20
16.062000
 21
16.156000
  0
LINE
 10
-1.591000
 11
-1.769000
 20
16.156000
 21
16.262000
  0
LINE
 10
-1.769000
 11
-1.941000
 20
16.262000
 21
16.379000
  0
LINE
 10
-1.941000
 11
-2.105000
 20
16.379000
 21
16.506000
  0
LINE
 10
-2.105000
 11
-2.260000
 20
16.506000
 21
16.643000
  0
LINE
 10
-2.260000
 11
-2.407000
 20
16.643000
 21
16.790000
  0
LINE
 10
-2.407000
 11
-2.544000
 20
16.790000
 21
16.945000
  0
LINE
 10
-2.544000
 11
-2.671000
 20
16.945000
 21
17.109000
  0
LINE
 10
-2.671000
 11
-2.788000
 20
17.109000
 21
17.281000
  0
LINE
 10
-2.788000
 11
-2.894000
 20
17.281000
 21
17.459000
  0
LINE
 10
-2.894000
 11
-2.988000
 20
17.459000
 21
17.644000
  0
LINE
 10
-2.988000
 11
-3.070000
 20
17.644000
 21
17.834000
  0
LINE
 10
-3.070000
 11
-3.140000
 20
17.834000
 21
18.030000
  0
LINE
 10
-3.140000
 11
-3.198000
 20
18.030000
 21
18.229000
  0
LINE
 10
-3.198000
 11
-3.244000
 20
18.229000
 21
18.431000
  0
LINE
 10
-3.244000
 11
-3.276000
 20
18.431000
 21
18.636000
  0
LINE
 10
-3.276000
 11
-3.295000
 20
18.636000
 21
18.843000
  0
LINE
 10
-3.295000
 11
-3.302000
 20
18.843000
 21
19.050000
  0
LINE
 10
-2.381000
 11
-2.377000
 20
139.700000
 21
139.850000
  0
LINE
 10
-2.377000
 11
-2.362000
 20
139.850000
 21
139.998000
  0
LINE
 10
-2.362000
 11
-2.339000
 20
139.998000
 21
140.146000
  0
LINE
 10
-2.339000
 11
-2.306000
 20
140.146000
 21
140.292000
  0
LINE
 10
-2.306000
 11
-2.265000
 20
140.292000
 21
140.436000
  0
LINE
 10
-2.265000
 11
-2.214000
 20
140.436000
 21
140.577000
  0
LINE
 10
-2.214000
 11
-2.155000
 20
140.577000
 21
140.714000
  0
LINE
 10
-2.155000
 11
-2.087000
 20
140.714000
 21
140.847000
  0
LINE
 10
-2.087000
 11
-2.011000
 20
140.847000
 21
140.976000
  0
LINE
 10
-2.011000
 11
-1.926000
 20
140.976000
 21
141.100000
  0
LINE
 10
-1.926000
 11
-1.835000
 20
141.100000
 21
141.218000
  0
LINE
 10
-1.835000
 11
-1.736000
 20
141.218000
 21
141.330000
  0
LINE
 10
-1.736000
 11
-1.630000
 20
141.330000
 21
141.436000
  0
LINE
 10
-1.630000
 11
-1.518000
 20
141.436000
 21
141.535000
  0
LINE
 10
-1.518000
 11
-1.400000
 20
141.535000
 21
141.626000
  0
LINE
 10
-1.400000
 11
-1.276000
 20
141.626000
 21
141.711000
  0
LINE
 10
-1.276000
 11
-1.147000
 20
141.711000
 21
141.787000
  0
LINE
 10
-1.147000
 11
-1.014000
 20
141.787000
 21
141.855000
  0
LINE
 10
-1.014000
 11
-0.877000
 20
141.855000
 21
141.914000
  0
LINE
 10
-0.877000
 11
-0.736000
 20
141.914000
 21
141.965000
  0
LINE
 10
-0.736000
 11
-0.592000
 20
141.965000
 21
142.006000
  0
LINE
 10
-0.592000
 11
-0.446000
 20
142.006000
 21
142.039000
  0
LINE
 10
-0.446000
 11
-0.298000
 20
142.039000
 21
142.062000
  0
LINE
 10
-0.298000
 11
-0.150000
 20
142.062000
 21
142.077000
  0
LINE
 10
-0.150000
 11
0.000000
 20
142.077000
 21
142.081000
  0
LINE
 10
0.000000
 11
0.150000
 20
142.081000
 21
142.077000
  0
LINE
 10
0.150000
 11
0.298000
 20
142.077000
 21
142.062000
  0
LINE
 10
0.298000
 11
0.446000
 20
142.062000
 21
142.039000
  0
LINE
 10
0.446000
 11
0.592000
 20
142.039000
 21
142.006000
  0
LINE
 10
0.592000
 11
0.736000
 20
142.006000
 21
141.965000
  0
LINE
 10
0.736000
 11
0.877000
 20
141.965000
 21
141.914000
  0
LINE
 10
0.877000
 11
1.014000
 20
141.914000
 21
141.855000
  0
LINE
 10
1.014000
 11
1.147000
 20
141.855000
 21
141.787000
  0
LINE
 10
1.147000
 11
1.276000
 20
141.787000
 21
141.711000
  0
LINE
 10
1.276000
 11
1.400000
 20
141.711000
 21
141.626000
  0
LINE
 10
1.400000
 11
1.518000
 20
141.626000
 21
141.535000
  0
LINE
 10
1.518000
 11
1.630000
 20
141.535000
 21
141.436000
  0
LINE
 10
1.630000
 11
1.736000
 20
141.436000
 21
141.330000
  0
LINE
 10
1.736000
 11
1.835000
 20
141.330000
 21
141.218000
  0
LINE
 10
1.835000
 11
1.926000
 20
141.218000
 21
141.100000
  0
LINE
 10
1.926000
 11
2.011000
 20
141.100000
 21
140.976000
  0
LINE
 10
2.011000
 11
2.087000
 20
140.976000
 21
140.847000
  0
LINE
 10
2.087000
 11
2.155000
 20
140.847000
 21
140.714000
  0
LINE
 10
2.155000
 11
2.214000
 20
140.714000
 21
140.577000
  0
LINE
 10
2.214000
 11
2.265000
 20
140.577000
 21
140.436000
  0
LINE
 10
2.265000
 11
2.306000
 20
140.436000
 21
140.292000
  0
LINE
 10
2.306000
 11
2.339000
 20
140.292000
 21
140.146000
  0
LINE
 10
2.339000
 11
2.362000
 20
140.146000
 21
139.998000
  0
LINE
 10
2.362000
 11
2.377000
 20
139.998000
 21
139.850000
  0
LINE
 10
2.377000
 11
2.381000
 20
139.850000
 21
139.700000
  0
LINE
 10
2.381000
 11
2.377000
 20
139.700000
 21
139.550000
  0
LINE
 10
2.377000
 11
2.362000
 20
139.550000
 21
139.402000
  0
LINE
 10
2.362000
 11
2.339000
 20
139.402000
 21
139.254000
  0
LINE
 10
2.339000
 11
2.306000
 20
139.254000
 21
139.108000
  0
LINE
 10
2.306000
 11
2.265000
 20
139.108000
 21
138.964000
  0
LINE
 10
2.265000
 11
2.214000
 20
138.964000
 21
138.823000
  0
LINE
 10
2.214000
 11
2.155000
 20
138.823000
 21
138.686000
  0
LINE
 10
2.155000
 11
2.087000
 20
138.686000
 21
138.553000
  0
LINE
 10
2.087000
 11
2.011000
 20
138.553000
 21
138.424000
  0
LINE
 10
2.011000
 11
1.926000
 20
138.424000
 21
138.300000
  0
LINE
 10
1.926000
 11
1.835000
 20
138.300000
 21
138.182000
  0
LINE
 10
1.835000
 11
1.736000
 20
138.182000
 21
138.070000
  0
LINE
 10
1.736000
 11
1.630000
 20
138.070000
 21
137.964000
  0
LINE
 10
1.630000
 11
1.518000
 20
137.964000
 21
137.865000
  0
LINE
 10
1.518000
 11
1.400000
 20
137.865000
 21
137.774000
  0
LINE
 10
1.400000
 11
1.276000
 20
137.774000
 21
137.689000
  0
LINE
 10
1.276000
 11
1.147000
 20
137.689000
 21
137.613000
  0
LINE
 10
1.147000
 11
1.014000
 20
137.613000
 21
137.545000
  0
LINE
 10
1.014000
 11
0.877000
 20
137.545000
 21
137.486000
  0
LINE
 10
0.877000
 11
0.736000
 20
137.486000
 21
137.435000
  0
LINE
 10
0.736000
 11
0.592000
 20
137.435000
 21
137.394000
  0
LINE
 10
0.592000
 11
0.446000
 20
137.394000
 21
137.361000
  0
LINE
 10
0.446000
 11
0.298000
 20
137.361000
 21
137.338000
  0
LINE
 10
0.298000
 11
0.150000
 20
137.338000
 21
137.323000
  0
LINE
 10
0.150000
 11
0.000000
 20
137.323000
 21
137.319000
  0
LINE
 10
0.000000
 11
-0.150000
 20
137.319000
 21
137.323000
  0
LINE
 10
-0.150000
 11
-0.298000
 20
137.323000
 21
137.338000
  0
LINE
 10
-0.298000
 11
-0.446000
 20
137.338000
 21
137.361000
  0
LINE
 10
-0.446000
 11
-0.592000
 20
137.361000
 21
137.394000
  0
LINE
 10
-0.592000
 11
-0.736000
 20
137.394000
 21
137.435000
  0
LINE
 10
-0.736000
 11
-0.877000
 20
137.435000
 21
137.486000
  0
LINE
 10
-0.877000
 11
-1.014000
 20
137.486000
 21
137.545000
  0
LINE
 10
-1.014000
 11
-1.147000
 20
137.545000
 21
137.613000
  0
LINE
 10
-1.147000
 11
-1.276000
 20
137.613000
 21
137.689000
  0
LINE
 10
-1.276000
 11
-1.400000
 20
137.689000
 21
137.774000
  0
LINE
 10
-1.400000
 11
-1.518000
 20
137.774000
 21
137.865000
  0
LINE
 10
-1.518000
 11
-1.630000
 20
137.865000
 21
137.964000
  0
LINE
 10
-1.630000
 11
-1.736000
 20
137.964000
 21
138.070000
  0
LINE
 10
-1.736000
 11
-1.835000
 20
138.070000
 21
138.182000
  0
LINE
 10
-1.835000
 11
-1.926000
 20
138.182000
 21
138.300000
  0
LINE
 10
-1.926000
 11
-2.011000
 20
138.300000
 21
138.424000
  0
LINE
 10
-2.011000
 11
-2.087000
 20
138.424000
 21
138.553000
  0
LINE
 10
-2.087000
 11
-2.155000
 20
138.553000
 21
138.686000
  0
LINE
 10
-2.155000
 11
-2.214000
 20
138.686000
 21
138.823000
  0
LINE
 10
-2.214000
 11
-2.265000
 20
138.823000
 21
138.964000
  0
LINE
 10
-2.265000
 11
-2.306000
 20
138.964000
 21
139.108000
  0
LINE
 10
-2.306000
 11
-2.339000
 20
139.108000
 21
139.254000
  0
LINE
 10
-2.339000
 11
-2.362000
 20
139.254000
 21
139.402000
  0
LINE
 10
-2.362000
 11
-2.377000
 20
139.402000
 21
139.550000
  0
LINE
 10
-2.377000
 11
-2.381000
 20
139.550000
 21
139.700000
  0
LINE
 10
9.791000
 11
9.821000
 20
117.547000
 21
117.736000
  0
LINE
 10
9.821000
 11
9.951000
 20
117.736000
 21
118.320000
  0
LINE
 10
9.951000
 11
10.118000
 20
118.320000
 21
118.894000
  0
LINE
 10
10.118000
 11
10.321000
 20
118.894000
 21
119.457000
  0
LINE
 10
10.321000
 11
10.559000
 20
119.457000
 21
120.007000
  0
LINE
 10
10.559000
 11
10.830000
 20
120.007000
 21
120.540000
  0
LINE
 10
10.830000
 11
11.135000
 20
120.540000
 21
121.055000
  0
LINE
 10
11.135000
 11
11.471000
 20
121.055000
 21
121.550000
  0
LINE
 10
11.471000
 11
11.838000
 20
121.550000
 21
122.022000
  0
LINE
 10
11.838000
 11
12.234000
 20
122.022000
 21
122.471000
  0
LINE
 10
12.234000
 11
12.657000
 20
122.471000
 21
122.894000
  0
LINE
 10
12.657000
 11
13.106000
 20
122.894000
 21
123.290000
  0
LINE
 10
13.106000
 11
13.578000
 20
123.290000
 21
123.657000
  0
LINE
 10
13.578000
 11
14.073000
 20
123.657000
 21
123.993000
  0
LINE
 10
14.073000
 11
14.588000
 20
123.993000
 21
124.298000
  0
LINE
 10
14.588000
 11
15.121000
 20
124.298000
 21
124.569000
  0
LINE
 10
15.121000
 11
15.671000
 20
124.569000
 21
124.807000
  0
LINE
 10
15.671000
 11
16.234000
 20
124.807000
 21
125.010000
  0
LINE
 10
16.234000
 11
16.808000
 20
125.010000
 21
125.177000
  0
LINE
 10
16.808000
 11
17.392000
 20
125.177000
 21
125.307000
  0
LINE
 10
17.392000
 11
17.983000
 20
125.307000
 21
125.401000
  0
LINE
 10
17.983000
 11
18.579000
 20
125.401000
 21
125.457000
  0
LINE
 10
18.579000
 11
19.177000
 20
125.457000
 21
125.476000
  0
LINE
 10
19.177000
 11
19.177000
 20
125.476000
 21
125.482000
  0
LINE
 10
19.177000
 11
23.797000
 20
125.482000
 21
124.750000
  0
LINE
 10
23.797000
 11
31.584000
 20
124.750000
 21
123.010000
  0
LINE
 10
31.584000
 11
39.245000
 20
123.010000
 21
120.784000
  0
LINE
 10
39.245000
 11
46.752000
 20
120.784000
 21
118.082000
  0
LINE
 10
46.752000
 11
54.074000
 20
118.082000
 21
114.913000
  0
LINE
 10
54.074000
 11
61.183000
 20
114.913000
 21
111.291000
  0
LINE
 10
61.183000
 11
68.050000
 20
111.291000
 21
107.230000
  0
LINE
 10
68.050000
 11
74.649000
 20
107.230000
 21
102.745000
  0
LINE
 10
74.649000
 11
80.953000
 20
102.745000
 21
97.855000
  0
LINE
 10
80.953000
 11
86.937000
 20
97.855000
 21
92.579000
  0
LINE
 10
86.937000
 11
92.579000
 20
92.579000
 21
86.937000
  0
LINE
 10
92.579000
 11
97.855000
 20
86.937000
 21
80.953000
  0
LINE
 10
97.855000
 11
102.745000
 20
80.953000
 21
74.649000
  0
LINE
 10
102.745000
 11
107.230000
 20
74.649000
 21
68.050000
  0
LINE
 10
107.230000
 11
111.291000
 20
68.050000
 21
61.183000
  0
LINE
 10
111.291000
 11
114.913000
 20
61.183000
 21
54.074000
  0
LINE
 10
114.913000
 11
118.082000
 20
54.074000
 21
46.752000
  0
LINE
 10
118.082000
 11
120.784000
 20
46.752000
 21
39.245000
  0
LINE
 10
120.784000
 11
123.010000
 20
39.245000
 21
31.584000
  0
LINE
 10
123.010000
 11
124.750000
 20
31.584000
 21
23.797000
  0
LINE
 10
124.750000
 11
125.482000
 20
23.797000
 21
19.177000
  0
LINE
 10
125.482000
 11
125.476000
 20
19.177000
 21
19.177000
  0
LINE
 10
125.476000
 11
125.457000
 20
19.177000
 21
18.579000
  0
LINE
 10
125.457000
 11
125.401000
 20
18.579000
 21
17.983000
  0
LINE
 10
125.401000
 11
125.307000
 20
17.983000
 21
17.392000
  0
LINE
 10
125.307000
 11
125.177000
 20
17.392000
 21
16.808000
  0
LINE
 10
125.177000
 11
125.010000
 20
16.808000
 21
16.234000
  0
LINE
 10
125.010000
 11
124.807000
 20
16.234000
 21
15.671000
  0
LINE
 10
124.807000
 11
124.569000
 20
15.671000
 21
15.121000
  0
LINE
 10
124.569000
 11
124.298000
 20
15.121000
 21
14.588000
  0
LINE
 10
124.298000
 11
123.993000
 20
14.588000
 21
14.073000
  0
LINE
 10
123.993000
 11
123.657000
 20
14.073000
 21
13.578000
  0
LINE
 10
123.657000
 11
123.290000
 20
13.578000
 21
13.106000
  0
LINE
 10
123.290000
 11
122.894000
 20
13.106000
 21
12.657000
  0
LINE
 10
122.894000
 11
122.471000
 20
12.657000
 21
12.234000
  0
LINE
 10
122.471000
 11
122.022000
 20
12.234000
 21
11.838000
  0
LINE
 10
122.022000
 11
121.550000
 20
11.838000
 21
11.471000
  0
LINE
 10
121.550000
 11
121.055000
 20
11.471000
 21
11.135000
  0
LINE
 10
121.055000
 11
120.540000
 20
11.135000
 21
10.830000
  0
LINE
 10
120.540000
 11
120.007000
 20
10.830000
 21
10.559000
  0
LINE
 10
120.007000
 11
119.457000
 20
10.559000
 21
10.321000
  0
LINE
 10
119.457000
 11
118.894000
 20
10.321000
 21
10.118000
  0
LINE
 10
118.894000
 11
118.320000
 20
10.118000
 21
9.951000
  0
LINE
 10
118.320000
 11
117.736000
 20
9.951000
 21
9.821000
  0
LINE
 10
117.736000
 11
117.547000
 20
9.821000
 21
9.791000
  0
LINE
 10
117.547000
 11
31.713000
 20
9.791000
 21
16.050000
  0
LINE
 10
31.713000
 11
31.161000
 20
16.050000
 21
17.131000
  0
LINE
 10
31.161000
 11
30.024000
 20
17.131000
 21
19.054000
  0
LINE
 10
30.024000
 11
28.769000
 20
19.054000
 21
20.902000
  0
LINE
 10
28.769000
 11
27.399000
 20
20.902000
 21
22.667000
  0
LINE
 10
27.399000
 11
25.922000
 20
22.667000
 21
24.342000
  0
LINE
 10
25.922000
 11
24.342000
 20
24.342000
 21
25.922000
  0
LINE
 10
24.342000
 11
22.667000
 20
25.922000
 21
27.399000
  0
LINE
 10
22.667000
 11
20.902000
 20
27.399000
 21
28.769000
  0
LINE
 10
20.902000
 11
19.054000
 20
28.769000
 21
30.024000
  0
LINE
 10
19.054000
 11
17.131000
 20
30.024000
 21
31.161000
  0
LINE
 10
17.131000
 11
16.050000
 20
31.161000
 21
31.713000
  0
LINE
 10
16.050000
 11
9.791000
 20
31.713000
 21
117.547000
  0
LINE
 10
13.196000
 11
13.207000
 20
-9.456000
 21
-9.249000
  0
LINE
 10
13.207000
 11
13.231000
 20
-9.249000
 21
-9.043000
  0
LINE
 10
13.231000
 11
13.268000
 20
-9.043000
 21
-8.838000
  0
LINE
 10
13.268000
 11
13.318000
 20
-8.838000
 21
-8.637000
  0
LINE
 10
13.318000
 11
13.379000
 20
-8.637000
 21
-8.439000
  0
LINE
 10
13.379000
 11
13.454000
 20
-8.439000
 21
-8.246000
  0
LINE
 10
13.454000
 11
13.541000
 20
-8.246000
 21
-8.057000
  0
LINE
 10
13.541000
 11
13.638000
 20
-8.057000
 21
-7.874000
  0
LINE
 10
13.638000
 11
13.748000
 20
-7.874000
 21
-7.698000
  0
LINE
 10
13.748000
 11
13.868000
 20
-7.698000
 21
-7.528000
  0
LINE
 10
13.868000
 11
13.998000
 20
-7.528000
 21
-7.367000
  0
LINE
 10
13.998000
 11
14.139000
 20
-7.367000
 21
-7.215000
  0
LINE
 10
14.139000
 11
14.288000
 20
-7.215000
 21
-7.072000
  0
LINE
 10
14.288000
 11
14.447000
 20
-7.072000
 21
-6.937000
  0
LINE
 10
14.447000
 11
14.613000
 20
-6.937000
 21
-6.813000
  0
LINE
 10
14.613000
 11
14.787000
 20
-6.813000
 21
-6.700000
  0
LINE
 10
14.787000
 11
14.968000
 20
-6.700000
 21
-6.599000
  0
LINE
 10
14.968000
 11
15.155000
 20
-6.599000
 21
-6.509000
  0
LINE
 10
15.155000
 11
15.347000
 20
-6.509000
 21
-6.430000
  0
LINE
 10
15.347000
 11
15.543000
 20
-6.430000
 21
-6.364000
  0
LINE
 10
15.543000
 11
15.744000
 20
-6.364000
 21
-6.310000
  0
LINE
 10
15.744000
 11
15.947000
 20
-6.310000
 21
-6.269000
  0
LINE
 10
15.947000
 11
16.152000
 20
-6.269000
 21
-6.241000
  0
LINE
 10
16.152000
 11
16.360000
 20
-6.241000
 21
-6.226000
  0
LINE
 10
16.360000
 11
16.567000
 20
-6.226000
 21
-6.223000
  0
LINE
 10
16.567000
 11
16.774000
 20
-6.223000
 21
-6.234000
  0
LINE
 10
16.774000
 11
16.980000
 20
-6.234000
 21
-6.258000
  0
LINE
 10
16.980000
 11
17.184000
 20
-6.258000
 21
-6.296000
  0
LINE
 10
17.184000
 11
17.386000
 20
-6.296000
 21
-6.345000
  0
LINE
 10
17.386000
 11
17.584000
 20
-6.345000
 21
-6.406000
  0
LINE
 10
17.584000
 11
17.777000
 20
-6.406000
 21
-6.481000
  0
LINE
 10
17.777000
 11
17.966000
 20
-6.481000
 21
-6.568000
  0
LINE
 10
17.966000
 11
18.149000
 20
-6.568000
 21
-6.665000
  0
LINE
 10
18.149000
 11
18.325000
 20
-6.665000
 21
-6.775000
  0
LINE
 10
18.325000
 11
18.494000
 20
-6.775000
 21
-6.895000
  0
LINE
 10
18.494000
 11
18.656000
 20
-6.895000
 21
-7.025000
  0
LINE
 10
18.656000
 11
18.808000
 20
-7.025000
 21
-7.166000
  0
LINE
 10
18.808000
 11
18.951000
 20
-7.166000
 21
-7.316000
  0
LINE
 10
18.951000
 11
19.086000
 20
-7.316000
 21
-7.474000
  0
LINE
 10
19.086000
 11
19.209000
 20
-7.474000
 21
-7.640000
  0
LINE
 10
19.209000
 11
19.323000
 20
-7.640000
 21
-7.814000
  0
LINE
 10
19.323000
 11
19.424000
 20
-7.814000
 21
-7.995000
  0
LINE
 10
19.424000
 11
19.514000
 20
-7.995000
 21
-8.182000
  0
LINE
 10
19.514000
 11
19.593000
 20
-8.182000
 21
-8.374000
  0
LINE
 10
19.593000
 11
19.659000
 20
-8.374000
 21
-8.570000
  0
LINE
 10
19.659000
 11
19.712000
 20
-8.570000
 21
-8.771000
  0
LINE
 10
19.712000
 11
19.753000
 20
-8.771000
 21
-8.974000
  0
LINE
 10
19.753000
 11
19.781000
 20
-8.974000
 21
-9.180000
  0
LINE
 10
19.781000
 11
19.797000
 20
-9.180000
 21
-9.387000
  0
LINE
 10
19.797000
 11
19.800000
 20
-9.387000
 21
-9.594000
  0
LINE
 10
19.800000
 11
19.788000
 20
-9.594000
 21
-9.801000
  0
LINE
 10
19.788000
 11
19.764000
 20
-9.801000
 21
-10.007000
  0
LINE
 10
19.764000
 11
19.727000
 20
-10.007000
 21
-10.212000
  0
LINE
 10
19.727000
 11
19.678000
 20
-10.212000
 21
-10.413000
  0
LINE
 10
19.678000
 11
19.617000
 20
-10.413000
 21
-10.611000
  0
LINE
 10
19.617000
 11
19.542000
 20
-10.611000
 21
-10.804000
  0
LINE
 10
19.542000
 11
19.455000
 20
-10.804000
 21
-10.993000
  0
LINE
 10
19.455000
 11
19.357000
 20
-10.993000
 21
-11.176000
  0
LINE
 10
19.357000
 11
19.248000
 20
-11.176000
 21
-11.352000
  0
LINE
 10
19.248000
 11
19.128000
 20
-11.352000
 21
-11.522000
  0
LINE
 10
19.128000
 11
18.998000
 20
-11.522000
 21
-11.683000
  0
LINE
 10
18.998000
 11
18.857000
 20
-11.683000
 21
-11.835000
  0
LINE
 10
18.857000
 11
18.707000
 20
-11.835000
 21
-11.978000
  0
LINE
 10
18.707000
 11
18.548000
 20
-11.978000
 21
-12.113000
  0
LINE
 10
18.548000
 11
18.382000
 20
-12.113000
 21
-12.237000
  0
LINE
 10
18.382000
 11
18.209000
 20
-12.237000
 21
-12.350000
  0
LINE
 10
18.209000
 11
18.028000
 20
-12.350000
 21
-12.451000
  0
LINE
 10
18.028000
 11
17.840000
 20
-12.451000
 21
-12.541000
  0
LINE
 10
17.840000
 11
17.648000
 20
-12.541000
 21
-12.620000
  0
LINE
 10
17.648000
 11
17.452000
 20
-12.620000
 21
-12.686000
  0
LINE
 10
17.452000
 11
17.252000
 20
-12.686000
 21
-12.740000
  0
LINE
 10
17.252000
 11
17.049000
 20
-12.740000
 21
-12.781000
  0
LINE
 10
17.049000
 11
16.843000
 20
-12.781000
 21
-12.809000
  0
LINE
 10
16.843000
 11
16.636000
 20
-12.809000
 21
-12.824000
  0
LINE
 10
16.636000
 11
16.429000
 20
-12.824000
 21
-12.827000
  0
LINE
 10
16.429000
 11
16.221000
 20
-12.827000
 21
-12.816000
  0
LINE
 10
16.221000
 11
16.016000
 20
-12.816000
 21
-12.792000
  0
LINE
 10
16.016000
 11
15.811000
 20
-12.792000
 21
-12.754000
  0
LINE
 10
15.811000
 11
15.610000
 20
-12.754000
 21
-12.705000
  0
LINE
 10
15.610000
 11
15.412000
 20
-12.705000
 21
-12.644000
  0
LINE
 10
15.412000
 11
15.218000
 20
-12.644000
 21
-12.569000
  0
LINE
 10
15.218000
 11
15.030000
 20
-12.569000
 21
-12.482000
  0
LINE
 10
15.030000
 11
14.847000
 20
-12.482000
 21
-12.385000
  0
LINE
 10
14.847000
 11
14.671000
 20
-12.385000
 21
-12.275000
  0
LINE
 10
14.671000
 11
14.501000
 20
-12.275000
 21
-12.155000
  0
LINE
 10
14.501000
 11
14.340000
 20
-12.155000
 21
-12.025000
  0
LINE
 10
14.340000
 11
14.188000
 20
-12.025000
 21
-11.884000
  0
LINE
 10
14.188000
 11
14.044000
 20
-11.884000
 21
-11.734000
  0
LINE
 10
14.044000
 11
13.910000
 20
-11.734000
 21
-11.576000
  0
LINE
 10
13.910000
 11
13.786000
 20
-11.576000
 21
-11.410000
  0
LINE
 10
13.786000
 11
13.673000
 20
-11.410000
 21
-11.236000
  0
LINE
 10
13.673000
 11
13.572000
 20
-11.236000
 21
-11.055000
  0
LINE
 10
13.572000
 11
13.481000
 20
-11.055000
 21
-10.868000
  0
LINE
 10
13.481000
 11
13.403000
 20
-10.868000
 21
-10.676000
  0
LINE
 10
13.403000
 11
13.337000
 20
-10.676000
 21
-10.480000
  0
LINE
 10
13.337000
 11
13.283000
 20
-10.480000
 21
-10.279000
  0
LINE
 10
13.283000
 11
13.242000
 20
-10.279000
 21
-10.076000
  0
LINE
 10
13.242000
 11
13.214000
 20
-10.076000
 21
-9.870000
  0
LINE
 10
13.214000
 11
13.199000
 20
-9.870000
 21
-9.663000
  0
LINE
 10
13.199000
 11
13.196000
 20
-9.663000
 21
-9.456000
  0
LINE
 10
51.080000
 11
51.087000
 20
129.103000
 21
129.253000
  0
LINE
 10
51.087000
 11
51.104000
 20
129.253000
 21
129.402000
  0
LINE
 10
51.104000
 11
51.129000
 20
129.402000
 21
129.549000
  0
LINE
 10
51.129000
 11
51.165000
 20
129.549000
 21
129.695000
  0
LINE
 10
51.165000
 11
51.207000
 20
129.695000
 21
129.837000
  0
LINE
 10
51.207000
 11
51.261000
 20
129.837000
 21
129.977000
  0
LINE
 10
51.261000
 11
51.322000
 20
129.977000
 21
130.114000
  0
LINE
 10
51.322000
 11
51.393000
 20
130.114000
 21
130.245000
  0
LINE
 10
51.393000
 11
51.471000
 20
130.245000
 21
130.373000
  0
LINE
 10
51.471000
 11
51.557000
 20
130.373000
 21
130.495000
  0
LINE
 10
51.557000
 11
51.650000
 20
130.495000
 21
130.613000
  0
LINE
 10
51.650000
 11
51.751000
 20
130.613000
 21
130.723000
  0
LINE
 10
51.751000
 11
51.858000
 20
130.723000
 21
130.827000
  0
LINE
 10
51.858000
 11
51.972000
 20
130.827000
 21
130.924000
  0
LINE
 10
51.972000
 11
52.091000
 20
130.924000
 21
131.014000
  0
LINE
 10
52.091000
 11
52.217000
 20
131.014000
 21
131.096000
  0
LINE
 10
52.217000
 11
52.346000
 20
131.096000
 21
131.171000
  0
LINE
 10
52.346000
 11
52.481000
 20
131.171000
 21
131.236000
  0
LINE
 10
52.481000
 11
52.619000
 20
131.236000
 21
131.294000
  0
LINE
 10
52.619000
 11
52.761000
 20
131.294000
 21
131.342000
  0
LINE
 10
52.761000
 11
52.904000
 20
131.342000
 21
131.381000
  0
LINE
 10
52.904000
 11
53.052000
 20
131.381000
 21
131.412000
  0
LINE
 10
53.052000
 11
53.200000
 20
131.412000
 21
131.433000
  0
LINE
 10
53.200000
 11
53.349000
 20
131.433000
 21
131.445000
  0
LINE
 10
53.349000
 11
53.498000
 20
131.445000
 21
131.447000
  0
LINE
 10
53.498000
 11
53.648000
 20
131.447000
 21
131.440000
  0
LINE
 10
53.648000
 11
53.796000
 20
131.440000
 21
131.423000
  0
LINE
 10
53.796000
 11
53.944000
 20
131.423000
 21
131.398000
  0
LINE
 10
53.944000
 11
54.089000
 20
131.398000
 21
131.362000
  0
LINE
 10
54.089000
 11
54.232000
 20
131.362000
 21
131.319000
  0
LINE
 10
54.232000
 11
54.372000
 20
131.319000
 21
131.266000
  0
LINE
 10
54.372000
 11
54.509000
 20
131.266000
 21
131.205000
  0
LINE
 10
54.509000
 11
54.640000
 20
131.205000
 21
131.134000
  0
LINE
 10
54.640000
 11
54.768000
 20
131.134000
 21
131.056000
  0
LINE
 10
54.768000
 11
54.890000
 20
131.056000
 21
130.970000
  0
LINE
 10
54.890000
 11
55.008000
 20
130.970000
 21
130.877000
  0
LINE
 10
55.008000
 11
55.118000
 20
130.877000
 21
130.776000
  0
LINE
 10
55.118000
 11
55.222000
 20
130.776000
 21
130.669000
  0
LINE
 10
55.222000
 11
55.319000
 20
130.669000
 21
130.555000
  0
LINE
 10
55.319000
 11
55.409000
 20
130.555000
 21
130.436000
  0
LINE
 10
55.409000
 11
55.491000
 20
130.436000
 21
130.310000
  0
LINE
 10
55.491000
 11
55.566000
 20
130.310000
 21
130.180000
  0
LINE
 10
55.566000
 11
55.631000
 20
130.180000
 21
130.046000
  0
LINE
 10
55.631000
 11
55.689000
 20
130.046000
 21
129.908000
  0
LINE
 10
55.689000
 11
55.737000
 20
129.908000
 21
129.766000
  0
LINE
 10
55.737000
 11
55.776000
 20
129.766000
 21
129.622000
  0
LINE
 10
55.776000
 11
55.807000
 20
129.622000
 21
129.475000
  0
LINE
 10
55.807000
 11
55.828000
 20
129.475000
 21
129.327000
  0
LINE
 10
55.828000
 11
55.840000
 20
129.327000
 21
129.178000
  0
LINE
 10
55.840000
 11
55.842000
 20
129.178000
 21
129.029000
  0
LINE
 10
55.842000
 11
55.835000
 20
129.029000
 21
128.879000
  0
LINE
 10
55.835000
 11
55.818000
 20
128.879000
 21
128.730000
  0
LINE
 10
55.818000
 11
55.793000
 20
128.730000
 21
128.583000
  0
LINE
 10
55.793000
 11
55.757000
 20
128.583000
 21
128.437000
  0
LINE
 10
55.757000
 11
55.714000
 20
128.437000
 21
128.295000
  0
LINE
 10
55.714000
 11
55.661000
 20
128.295000
 21
128.155000
  0
LINE
 10
55.661000
 11
55.600000
 20
128.155000
 21
128.018000
  0
LINE
 10
55.600000
 11
55.529000
 20
128.018000
 21
127.887000
  0
LINE
 10
55.529000
 11
55.451000
 20
127.887000
 21
127.759000
  0
LINE
 10
55.451000
 11
55.365000
 20
127.759000
 21
127.637000
  0
LINE
 10
55.365000
 11
55.272000
 20
127.637000
 21
127.519000
  0
LINE
 10
55.272000
 11
55.171000
 20
127.519000
 21
127.408000
  0
LINE
 10
55.171000
 11
55.064000
 20
127.408000
 21
127.304000
  0
LINE
 10
55.064000
 11
54.950000
 20
127.304000
 21
127.208000
  0
LINE
 10
54.950000
 11
54.830000
 20
127.208000
 21
127.118000
  0
LINE
 10
54.830000
 11
54.705000
 20
127.118000
 21
127.035000
  0
LINE
 10
54.705000
 11
54.575000
 20
127.035000
 21
126.961000
  0
LINE
 10
54.575000
 11
54.441000
 20
126.961000
 21
126.896000
  0
LINE
 10
54.441000
 11
54.302000
 20
126.896000
 21
126.838000
  0
LINE
 10
54.302000
 11
54.161000
 20
126.838000
 21
126.790000
  0
LINE
 10
54.161000
 11
54.017000
 20
126.790000
 21
126.751000
  0
LINE
 10
54.017000
 11
53.870000
 20
126.751000
 21
126.720000
  0
LINE
 10
53.870000
 11
53.722000
 20
126.720000
 21
126.699000
  0
LINE
 10
53.722000
 11
53.573000
 20
126.699000
 21
126.687000
  0
LINE
 10
53.573000
 11
53.424000
 20
126.687000
 21
126.685000
  0
LINE
 10
53.424000
 11
53.274000
 20
126.685000
 21
126.692000
  0
LINE
 10
53.274000
 11
53.125000
 20
126.692000
 21
126.709000
  0
LINE
 10
53.125000
 11
52.978000
 20
126.709000
 21
126.734000
  0
LINE
 10
52.978000
 11
52.832000
 20
126.734000
 21
126.770000
  0
LINE
 10
52.832000
 11
52.690000
 20
126.770000
 21
126.813000
  0
LINE
 10
52.690000
 11
52.550000
 20
126.813000
 21
126.866000
  0
LINE
 10
52.550000
 11
52.413000
 20
126.866000
 21
126.927000
  0
LINE
 10
52.413000
 11
52.282000
 20
126.927000
 21
126.998000
  0
LINE
 10
52.282000
 11
52.154000
 20
126.998000
 21
127.076000
  0
LINE
 10
52.154000
 11
52.031000
 20
127.076000
 21
127.162000
  0
LINE
 10
52.031000
 11
51.914000
 20
127.162000
 21
127.255000
  0
LINE
 10
51.914000
 11
51.803000
 20
127.255000
 21
127.356000
  0
LINE
 10
51.803000
 11
51.699000
 20
127.356000
 21
127.463000
  0
LINE
 10
51.699000
 11
51.603000
 20
127.463000
 21
127.577000
  0
LINE
 10
51.603000
 11
51.512000
 20
127.577000
 21
127.696000
  0
LINE
 10
51.512000
 11
51.430000
 20
127.696000
 21
127.822000
  0
LINE
 10
51.430000
 11
51.356000
 20
127.822000
 21
127.952000
  0
LINE
 10
51.356000
 11
51.291000
 20
127.952000
 21
128.086000
  0
LINE
 10
51.291000
 11
51.233000
 20
128.086000
 21
128.224000
  0
LINE
 10
51.233000
 11
51.185000
 20
128.224000
 21
128.366000
  0
LINE
 10
51.185000
 11
51.146000
 20
128.366000
 21
128.510000
  0
LINE
 10
51.146000
 11
51.115000
 20
128.510000
 21
128.657000
  0
LINE
 10
51.115000
 11
51.094000
 20
128.657000
 21
128.805000
  0
LINE
 10
51.094000
 11
51.082000
 20
128.805000
 21
128.954000
  0
LINE
 10
51.082000
 11
51.080000
 20
128.954000
 21
129.103000
  0
LINE
 10
96.403000
 11
96.403000
 20
98.708000
 21
98.858000
  0
LINE
 10
96.403000
 11
96.412000
 20
98.858000
 21
99.007000
  0
LINE
 10
96.412000
 11
96.431000
 20
99.007000
 21
99.155000
  0
LINE
 10
96.431000
 11
96.459000
 20
99.155000
 21
99.303000
  0
LINE
 10
96.459000
 11
96.496000
 20
99.303000
 21
99.447000
  0
LINE
 10
96.496000
 11
96.542000
 20
99.447000
 21
99.590000
  0
LINE
 10
96.542000
 11
96.597000
 20
99.590000
 21
99.728000
  0
LINE
 10
96.597000
 11
96.661000
 20
99.728000
 21
99.864000
  0
LINE
 10
96.661000
 11
96.734000
 20
99.864000
 21
99.995000
  0
LINE
 10
96.734000
 11
96.814000
 20
99.995000
 21
100.121000
  0
LINE
 10
96.814000
 11
96.902000
 20
100.121000
 21
100.242000
  0
LINE
 10
96.902000
 11
96.996000
 20
100.242000
 21
100.358000
  0
LINE
 10
96.996000
 11
97.099000
 20
100.358000
 21
100.466000
  0
LINE
 10
97.099000
 11
97.208000
 20
100.466000
 21
100.570000
  0
LINE
 10
97.208000
 11
97.323000
 20
100.570000
 21
100.664000
  0
LINE
 10
97.323000
 11
97.444000
 20
100.664000
 21
100.752000
  0
LINE
 10
97.444000
 11
97.571000
 20
100.752000
 21
100.832000
  0
LINE
 10
97.571000
 11
97.702000
 20
100.832000
 21
100.905000
  0
LINE
 10
97.702000
 11
97.837000
 20
100.905000
 21
100.968000
  0
LINE
 10
97.837000
 11
97.976000
 20
100.968000
 21
101.024000
  0
LINE
 10
97.976000
 11
98.118000
 20
101.024000
 21
101.070000
  0
LINE
 10
98.118000
 11
98.263000
 20
101.070000
 21
101.107000
  0
LINE
 10
98.263000
 11
98.411000
 20
101.107000
 21
101.135000
  0
LINE
 10
98.411000
 11
98.559000
 20
101.135000
 21
101.154000
  0
LINE
 10
98.559000
 11
98.708000
 20
101.154000
 21
101.163000
  0
LINE
 10
98.708000
 11
98.858000
 20
101.163000
 21
101.163000
  0
LINE
 10
98.858000
 11
99.007000
 20
101.163000
 21
101.154000
  0
LINE
 10
99.007000
 11
99.155000
 20
101.154000
 21
101.135000
  0
LINE
 10
99.155000
 11
99.303000
 20
101.135000
 21
101.107000
  0
LINE
 10
99.303000
 11
99.447000
 20
101.107000
 21
101.070000
  0
LINE
 10
99.447000
 11
99.590000
 20
101.070000
 21
101.024000
  0
LINE
 10
99.590000
 11
99.728000
 20
101.024000
 21
100.968000
  0
LINE
 10
99.728000
 11
99.864000
 20
100.968000
 21
100.905000
  0
LINE
 10
99.864000
 11
99.995000
 20
100.905000
 21
100.832000
  0
LINE
 10
99.995000
 11
100.121000
 20
100.832000
 21
100.752000
  0
LINE
 10
100.121000
 11
100.242000
 20
100.752000
 21
100.664000
  0
LINE
 10
100.242000
 11
100.358000
 20
100.664000
 21
100.570000
  0
LINE
 10
100.358000
 11
100.466000
 20
100.570000
 21
100.466000
  0
LINE
 10
100.466000
 11
100.570000
 20
100.466000
 21
100.358000
  0
LINE
 10
100.570000
 11
100.664000
 20
100.358000
 21
100.242000
  0
LINE
 10
100.664000
 11
100.752000
 20
100.242000
 21
100.121000
  0
LINE
 10
100.752000
 11
100.832000
 20
100.121000
 21
99.995000
  0
LINE
 10
100.832000
 11
100.905000
 20
99.995000
 21
99.864000
  0
LINE
 10
100.905000
 11
100.968000
 20
99.864000
 21
99.728000
  0
LINE
 10
100.968000
 11
101.024000
 20
99.728000
 21
99.590000
  0
LINE
 10
101.024000
 11
101.070000
 20
99.590000
 21
99.447000
  0
LINE
 10
101.070000
 11
101.107000
 20
99.447000
 21
99.303000
  0
LINE
 10
101.107000
 11
101.135000
 20
99.303000
 21
99.155000
  0
LINE
 10
101.135000
 11
101.154000
 20
99.155000
 21
99.007000
  0
LINE
 10
101.154000
 11
101.163000
 20
99.007000
 21
98.858000
  0
LINE
 10
101.163000
 11
101.163000
 20
98.858000
 21
98.708000
  0
LINE
 10
101.163000
 11
101.154000
 20
98.708000
 21
98.559000
  0
LINE
 10
101.154000
 11
101.135000
 20
98.559000
 21
98.411000
  0
LINE
 10
101.135000
 11
101.107000
 20
98.411000
 21
98.263000
  0
LINE
 10
101.107000
 11
101.070000
 20
98.263000
 21
98.118000
  0
LINE
 10
101.070000
 11
101.024000
 20
98.118000
 21
97.976000
  0
LINE
 10
101.024000
 11
100.968000
 20
97.976000
 21
97.837000
  0
LINE
 10
100.968000
 11
100.905000
 20
97.837000
 21
97.702000
  0
LINE
 10
100.905000
 11
100.832000
 20
97.702000
 21
97.571000
  0
LINE
 10
100.832000
 11
100.752000
 20
97.571000
 21
97.444000
  0
LINE
 10
100.752000
 11
100.664000
 20
97.444000
 21
97.323000
  0
LINE
 10
100.664000
 11
100.570000
 20
97.323000
 21
97.208000
  0
LINE
 10
100.570000
 11
100.466000
 20
97.208000
 21
97.099000
  0
LINE
 10
100.466000
 11
100.358000
 20
97.099000
 21
96.996000
  0
LINE
 10
100.358000
 11
100.242000
 20
96.996000
 21
96.902000
  0
LINE
 10
100.242000
 11
100.121000
 20
96.902000
 21
96.814000
  0
LINE
 10
100.121000
 11
99.995000
 20
96.814000
 21
96.734000
  0
LINE
 10
99.995000
 11
99.864000
 20
96.734000
 21
96.661000
  0
LINE
 10
99.864000
 11
99.728000
 20
96.661000
 21
96.597000
  0
LINE
 10
99.728000
 11
99.590000
 20
96.597000
 21
96.542000
  0
LINE
 10
99.590000
 11
99.447000
 20
96.542000
 21
96.496000
  0
LINE
 10
99.447000
 11
99.303000
 20
96.496000
 21
96.459000
  0
LINE
 10
99.303000
 11
99.155000
 20
96.459000
 21
96.431000
  0
LINE
 10
99.155000
 11
99.007000
 20
96.431000
 21
96.412000
  0
LINE
 10
99.007000
 11
98.858000
 20
96.412000
 21
96.403000
  0
LINE
 10
98.858000
 11
98.708000
 20
96.403000
 21
96.403000
  0
LINE
 10
98.708000
 11
98.559000
 20
96.403000
 21
96.412000
  0
LINE
 10
98.559000
 11
98.411000
 20
96.412000
 21
96.431000
  0
LINE
 10
98.411000
 11
98.263000
 20
96.431000
 21
96.459000
  0
LINE
 10
98.263000
 11
98.118000
 20
96.459000
 21
96.496000
  0
LINE
 10
98.118000
 11
97.976000
 20
96.496000
 21
96.542000
  0
LINE
 10
97.976000
 11
97.837000
 20
96.542000
 21
96.597000
  0
LINE
 10
97.837000
 11
97.702000
 20
96.597000
 21
96.661000
  0
LINE
 10
97.702000
 11
97.571000
 20
96.661000
 21
96.734000
  0
LINE
 10
97.571000
 11
97.444000
 20
96.734000
 21
96.814000
  0
LINE
 10
97.444000
 11
97.323000
 20
96.814000
 21
96.902000
  0
LINE
 10
97.323000
 11
97.208000
 20
96.902000
 21
96.996000
  0
LINE
 10
97.208000
 11
97.099000
 20
96.996000
 21
97.099000
  0
LINE
 10
97.099000
 11
96.996000
 20
97.099000
 21
97.208000
  0
LINE
 10
96.996000
 11
96.902000
 20
97.208000
 21
97.323000
  0
LINE
 10
96.902000
 11
96.814000
 20
97.323000
 21
97.444000
  0
LINE
 10
96.814000
 11
96.734000
 20
97.444000
 21
97.571000
  0
LINE
 10
96.734000
 11
96.661000
 20
97.571000
 21
97.702000
  0
LINE
 10
96.661000
 11
96.597000
 20
97.702000
 21
97.837000
  0
LINE
 10
96.597000
 11
96.542000
 20
97.837000
 21
97.976000
  0
LINE
 10
96.542000
 11
96.496000
 20
97.976000
 21
98.118000
  0
LINE
 10
96.496000
 11
96.459000
 20
98.118000
 21
98.263000
  0
LINE
 10
96.459000
 11
96.431000
 20
98.263000
 21
98.411000
  0
LINE
 10
96.431000
 11
96.412000
 20
98.411000
 21
98.559000
  0
LINE
 10
96.412000
 11
96.403000
 20
98.559000
 21
98.708000
  0
LINE
 10
126.685000
 11
126.687000
 20
53.424000
 21
53.573000
  0
LINE
 10
126.687000
 11
126.699000
 20
53.573000
 21
53.722000
  0
LINE
 10
126.699000
 11
126.720000
 20
53.722000
 21
53.870000
  0
LINE
 10
126.720000
 11
126.751000
 20
53.870000
 21
54.017000
  0
LINE
 10
126.751000
 11
126.790000
 20
54.017000
 21
54.161000
  0
LINE
 10
126.790000
 11
126.838000
 20
54.161000
 21
54.302000
  0
LINE
 10
126.838000
 11
126.896000
 20
54.302000
 21
54.441000
  0
LINE
 10
126.896000
 11
126.961000
 20
54.441000
 21
54.575000
  0
LINE
 10
126.961000
 11
127.035000
 20
54.575000
 21
54.705000
  0
LINE
 10
127.035000
 11
127.118000
 20
54.705000
 21
54.830000
  0
LINE
 10
127.118000
 11
127.208000
 20
54.830000
 21
54.950000
  0
LINE
 10
127.208000
 11
127.304000
 20
54.950000
 21
55.064000
  0
LINE
 10
127.304000
 11
127.408000
 20
55.064000
 21
55.171000
  0
LINE
 10
127.408000
 11
127.519000
 20
55.171000
 21
55.272000
  0
LINE
 10
127.519000
 11
127.637000
 20
55.272000
 21
55.365000
  0
LINE
 10
127.637000
 11
127.759000
 20
55.365000
 21
55.451000
  0
LINE
 10
127.759000
 11
127.887000
 20
55.451000
 21
55.529000
  0
LINE
 10
127.887000
 11
128.018000
 20
55.529000
 21
55.600000
  0
LINE
 10
128.018000
 11
128.155000
 20
55.600000
 21
55.661000
  0
LINE
 10
128.155000
 11
128.295000
 20
55.661000
 21
55.714000
  0
LINE
 10
128.295000
 11
128.437000
 20
55.714000
 21
55.757000
  0
LINE
 10
128.437000
 11
128.583000
 20
55.757000
 21
55.793000
  0
LINE
 10
128.583000
 11
128.730000
 20
55.793000
 21
55.818000
  0
LINE
 10
128.730000
 11
128.879000
 20
55.818000
 21
55.835000
  0
LINE
 10
128.879000
 11
129.029000
 20
55.835000
 21
55.842000
  0
LINE
 10
129.029000
 11
129.178000
 20
55.842000
 21
55.840000
  0
LINE
 10
129.178000
 11
129.327000
 20
55.840000
 21
55.828000
  0
LINE
 10
129.327000
 11
129.475000
 20
55.828000
 21
55.807000
  0
LINE
 10
129.475000
 11
129.622000
 20
55.807000
 21
55.776000
  0
LINE
 10
129.622000
 11
129.766000
 20
55.776000
 21
55.737000
  0
LINE
 10
129.766000
 11
129.908000
 20
55.737000
 21
55.689000
  0
LINE
 10
129.908000
 11
130.046000
 20
55.689000
 21
55.631000
  0
LINE
 10
130.046000
 11
130.180000
 20
55.631000
 21
55.566000
  0
LINE
 10
130.180000
 11
130.310000
 20
55.566000
 21
55.491000
  0
LINE
 10
130.310000
 11
130.436000
 20
55.491000
 21
55.409000
  0
LINE
 10
130.436000
 11
130.555000
 20
55.409000
 21
55.319000
  0
LINE
 10
130.555000
 11
130.669000
 20
55.319000
 21
55.222000
  0
LINE
 10
130.669000
 11
130.776000
 20
55.222000
 21
55.118000
  0
LINE
 10
130.776000
 11
130.877000
 20
55.118000
 21
55.008000
  0
LINE
 10
130.877000
 11
130.970000
 20
55.008000
 21
54.890000
  0
LINE
 10
130.970000
 11
131.056000
 20
54.890000
 21
54.768000
  0
LINE
 10
131.056000
 11
131.134000
 20
54.768000
 21
54.640000
  0
LINE
 10
131.134000
 11
131.205000
 20
54.640000
 21
54.509000
  0
LINE
 10
131.205000
 11
131.266000
 20
54.509000
 21
54.372000
  0
LINE
 10
131.266000
 11
131.319000
 20
54.372000
 21
54.232000
  0
LINE
 10
131.319000
 11
131.362000
 20
54.232000
 21
54.089000
  0
LINE
 10
131.362000
 11
131.398000
 20
54.089000
 21
53.944000
  0
LINE
 10
131.398000
 11
131.423000
 20
53.944000
 21
53.796000
  0
LINE
 10
131.423000
 11
131.440000
 20
53.796000
 21
53.648000
  0
LINE
 10
131.440000
 11
131.447000
 20
53.648000
 21
53.498000
  0
LINE
 10
131.447000
 11
131.445000
 20
53.498000
 21
53.349000
  0
LINE
 10
131.445000
 11
131.433000
 20
53.349000
 21
53.200000
  0
LINE
 10
131.433000
 11
131.412000
 20
53.200000
 21
53.052000
  0
LINE
 10
131.412000
 11
131.381000
 20
53.052000
 21
52.904000
  0
LINE
 10
131.381000
 11
131.342000
 20
52.904000
 21
52.761000
  0
LINE
 10
131.342000
 11
131.294000
 20
52.761000
 21
52.619000
  0
LINE
 10
131.294000
 11
131.236000
 20
52.619000
 21
52.481000
  0
LINE
 10
131.236000
 11
131.171000
 20
52.481000
 21
52.346000
  0
LINE
 10
131.171000
 11
131.096000
 20
52.346000
 21
52.217000
  0
LINE
 10
131.096000
 11
131.014000
 20
52.217000
 21
52.091000
  0
LINE
 10
131.014000
 11
130.924000
 20
52.091000
 21
51.972000
  0
LINE
 10
130.924000
 11
130.827000
 20
51.972000
 21
51.858000
  0
LINE
 10
130.827000
 11
130.723000
 20
51.858000
 21
51.751000
  0
LINE
 10
130.723000
 11
130.613000
 20
51.751000
 21
51.650000
  0
LINE
 10
130.613000
 11
130.495000
 20
51.650000
 21
51.557000
  0
LINE
 10
130.495000
 11
130.373000
 20
51.557000
 21
51.471000
  0
LINE
 10
130.373000
 11
130.245000
 20
51.471000
 21
51.393000
  0
LINE
 10
130.245000
 11
130.114000
 20
51.393000
 21
51.322000
  0
LINE
 10
130.114000
 11
129.977000
 20
51.322000
 21
51.261000
  0
LINE
 10
129.977000
 11
129.837000
 20
51.261000
 21
51.207000
  0
LINE
 10
129.837000
 11
129.695000
 20
51.207000
 21
51.165000
  0
LINE
 10
129.695000
 11
129.549000
 20
51.165000
 21
51.129000
  0
LINE
 10
129.549000
 11
129.402000
 20
51.129000
 21
51.104000
  0
LINE
 10
129.402000
 11
129.253000
 20
51.104000
 21
51.087000
  0
LINE
 10
129.253000
 11
129.103000
 20
51.087000
 21
51.080000
  0
LINE
 10
129.103000
 11
128.954000
 20
51.080000
 21
51.082000
  0
LINE
 10
128.954000
 11
128.805000
 20
51.082000
 21
51.094000
  0
LINE
 10
128.805000
 11
128.657000
 20
51.094000
 21
51.115000
  0
LINE
 10
128.657000
 11
128.510000
 20
51.115000
 21
51.146000
  0
LINE
 10
128.510000
 11
128.366000
 20
51.146000
 21
51.185000
  0
LINE
 10
128.366000
 11
128.224000
 20
51.185000
 21
51.233000
  0
LINE
 10
128.224000
 11
128.086000
 20
51.233000
 21
51.291000
  0
LINE
 10
128.086000
 11
127.952000
 20
51.291000
 21
51.356000
  0
LINE
 10
127.952000
 11
127.822000
 20
51.356000
 21
51.430000
  0
LINE
 10
127.822000
 11
127.696000
 20
51.430000
 21
51.512000
  0
LINE
 10
127.696000
 11
127.577000
 20
51.512000
 21
51.603000
  0
LINE
 10
127.577000
 11
127.463000
 20
51.603000
 21
51.699000
  0
LINE
 10
127.463000
 11
127.356000
 20
51.699000
 21
51.803000
  0
LINE
 10
127.356000
 11
127.255000
 20
51.803000
 21
51.914000
  0
LINE
 10
127.255000
 11
127.162000
 20
51.914000
 21
52.031000
  0
LINE
 10
127.162000
 11
127.076000
 20
52.031000
 21
52.154000
  0
LINE
 10
127.076000
 11
126.998000
 20
52.154000
 21
52.282000
  0
LINE
 10
126.998000
 11
126.927000
 20
52.282000
 21
52.413000
  0
LINE
 10
126.927000
 11
126.866000
 20
52.413000
 21
52.550000
  0
LINE
 10
126.866000
 11
126.813000
 20
52.550000
 21
52.690000
  0
LINE
 10
126.813000
 11
126.770000
 20
52.690000
 21
52.832000
  0
LINE
 10
126.770000
 11
126.734000
 20
52.832000
 21
52.978000
  0
LINE
 10
126.734000
 11
126.709000
 20
52.978000
 21
53.125000
  0
LINE
 10
126.709000
 11
126.692000
 20
53.125000
 21
53.274000
  0
LINE
 10
126.692000
 11
126.685000
 20
53.274000
 21
53.424000
  0
LINE
 10
137.319000
 11
137.323000
 20
0.000000
 21
0.150000
  0
LINE
 10
137.323000
 11
137.338000
 20
0.150000
 21
0.298000
  0
LINE
 10
137.338000
 11
137.361000
 20
0.298000
 21
0.446000
  0
LINE
 10
137.361000
 11
137.394000
 20
0.446000
 21
0.592000
  0
LINE
 10
137.394000
 11
137.435000
 20
0.592000
 21
0.736000
  0
LINE
 10
137.435000
 11
137.486000
 20
0.736000
 21
0.877000
  0
LINE
 10
137.486000
 11
137.545000
 20
0.877000
 21
1.014000
  0
LINE
 10
137.545000
 11
137.613000
 20
1.014000
 21
1.147000
  0
LINE
 10
137.613000
 11
137.689000
 20
1.147000
 21
1.276000
  0
LINE
 10
137.689000
 11
137.774000
 20
1.276000
 21
1.400000
  0
LINE
 10
137.774000
 11
137.865000
 20
1.400000
 21
1.518000
  0
LINE
 10
137.865000
 11
137.964000
 20
1.518000
 21
1.630000
  0
LINE
 10
137.964000
 11
138.070000
 20
1.630000
 21
1.736000
  0
LINE
 10
138.070000
 11
138.182000
 20
1.736000
 21
1.835000
  0
LINE
 10
138.182000
 11
138.300000
 20
1.835000
 21
1.926000
  0
LINE
 10
138.300000
 11
138.424000
 20
1.926000
 21
2.011000
  0
LINE
 10
138.424000
 11
138.553000
 20
2.011000
 21
2.087000
  0
LINE
 10
138.553000
 11
138.686000
 20
2.087000
 21
2.155000
  0
LINE
 10
138.686000
 11
138.823000
 20
2.155000
 21
2.214000
  0
LINE
 10
138.823000
 11
138.964000
 20
2.214000
 21
2.265000
  0
LINE
 10
138.964000
 11
139.108000
 20
2.265000
 21
2.306000
  0
LINE
 10
139.108000
 11
139.254000
 20
2.306000
 21
2.339000
  0
LINE
 10
139.254000
 11
139.402000
 20
2.339000
 21
2.362000
  0
LINE
 10
139.402000
 11
139.550000
 20
2.362000
 21
2.377000
  0
LINE
 10
139.550000
 11
139.700000
 20
2.377000
 21
2.381000
  0
LINE
 10
139.700000
 11
139.850000
 20
2.381000
 21
2.377000
  0
LINE
 10
139.850000
 11
139.998000
 20
2.377000
 21
2.362000
  0
LINE
 10
139.998000
 11
140.146000
 20
2.362000
 21
2.339000
  0
LINE
 10
140.146000
 11
140.292000
 20
2.339000
 21
2.306000
  0
LINE
 10
140.292000
 11
140.436000
 20
2.306000
 21
2.265000
  0
LINE
 10
140.436000
 11
140.577000
 20
2.265000
 21
2.214000
  0
LINE
 10
140.577000
 11
140.714000
 20
2.214000
 21
2.155000
  0
LINE
 10
140.714000
 11
140.847000
 20
2.155000
 21
2.087000
  0
LINE
 10
140.847000
 11
140.976000
 20
2.087000
 21
2.011000
  0
LINE
 10
140.976000
 11
141.100000
 20
2.011000
 21
1.926000
  0
LINE
 10
141.100000
 11
141.218000
 20
1.926000
 21
1.835000
  0
LINE
 10
141.218000
 11
141.330000
 20
1.835000
 21
1.736000
  0
LINE
 10
141.330000
 11
141.436000
 20
1.736000
 21
1.630000
  0
LINE
 10
141.436000
 11
141.535000
 20
1.630000
 21
1.518000
  0
LINE
 10
141.535000
 11
141.626000
 20
1.518000
 21
1.400000
  0
LINE
 10
141.626000
 11
141.711000
 20
1.400000
 21
1.276000
  0
LINE
 10
141.711000
 11
141.787000
 20
1.276000
 21
1.147000
  0
LINE
 10
141.787000
 11
141.855000
 20
1.147000
 21
1.014000
  0
LINE
 10
141.855000
 11
141.914000
 20
1.014000
 21
0.877000
  0
LINE
 10
141.914000
 11
141.965000
 20
0.877000
 21
0.736000
  0
LINE
 10
141.965000
 11
142.006000
 20
0.736000
 21
0.592000
  0
LINE
 10
142.006000
 11
142.039000
 20
0.592000
 21
0.446000
  0
LINE
 10
142.039000
 11
142.062000
 20
0.446000
 21
0.298000
  0
LINE
 10
142.062000
 11
142.077000
 20
0.298000
 21
0.150000
  0
LINE
 10
142.077000
 11
142.081000
 20
0.150000
 21
0.000000
  0
LINE
 10
142.081000
 11
142.077000
 20
0.000000
 21
-0.150000
  0
LINE
 10
142.077000
 11
142.062000
 20
-0.150000
 21
-0.298000
  0
LINE
 10
142.062000
 11
142.039000
 20
-0.298000
 21
-0.446000
  0
LINE
 10
142.039000
 11
142.006000
 20
-0.446000
 21
-0.592000
  0
LINE
 10
142.006000
 11
141.965000
 20
-0.592000
 21
-0.736000
  0
LINE
 10
141.965000
 11
141.914000
 20
-0.736000
 21
-0.877000
  0
LINE
 10
141.914000
 11
141.855000
 20
-0.877000
 21
-1.014000
  0
LINE
 10
141.855000
 11
141.787000
 20
-1.014000
 21
-1.147000
  0
LINE
 10
141.787000
 11
141.711000
 20
-1.147000
 21
-1.276000
  0
LINE
 10
141.711000
 11
141.626000
 20
-1.276000
 21
-1.400000
  0
LINE
 10
141.626000
 11
141.535000
 20
-1.400000
 21
-1.518000
  0
LINE
 10
141.535000
 11
141.436000
 20
-1.518000
 21
-1.630000
  0
LINE
 10
141.436000
 11
141.330000
 20
-1.630000
 21
-1.736000
  0
LINE
 10
141.330000
 11
141.218000
 20
-1.736000
 21
-1.835000
  0
LINE
 10
141.218000
 11
141.100000
 20
-1.835000
 21
-1.926000
  0
LINE
 10
141.100000
 11
140.976000
 20
-1.926000
 21
-2.011000
  0
LINE
 10
140.976000
 11
140.847000
 20
-2.011000
 21
-2.087000
  0
LINE
 10
140.847000
 11
140.714000
 20
-2.087000
 21
-2.155000
  0
LINE
 10
140.714000
 11
140.577000
 20
-2.155000
 21
-2.214000
  0
LINE
 10
140.577000
 11
140.436000
 20
-2.214000
 21
-2.265000
  0
LINE
 10
140.436000
 11
140.292000
 20
-2.265000
 21
-2.306000
  0
LINE
 10
140.292000
 11
140.146000
 20
-2.306000
 21
-2.339000
  0
LINE
 10
140.146000
 11
139.998000
 20
-2.339000
 21
-2.362000
  0
LINE
 10
139.998000
 11
139.850000
 20
-2.362000
 21
-2.377000
  0
LINE
 10
139.850000
 11
139.700000
 20
-2.377000
 21
-2.381000
  0
LINE
 10
139.700000
 11
139.550000
 20
-2.381000
 21
-2.377000
  0
LINE
 10
139.550000
 11
139.402000
 20
-2.377000
 21
-2.362000
  0
LINE
 10
139.402000
 11
139.254000
 20
-2.362000
 21
-2.339000
  0
LINE
 10
139.254000
 11
139.108000
 20
-2.339000
 21
-2.306000
  0
LINE
 10
139.108000
 11
138.964000
 20
-2.306000
 21
-2.265000
  0
LINE
 10
138.964000
 11
138.823000
 20
-2.265000
 21
-2.214000
  0
LINE
 10
138.823000
 11
138.686000
 20
-2.214000
 21
-2.155000
  0
LINE
 10
138.686000
 11
138.553000
 20
-2.155000
 21
-2.087000
  0
LINE
 10
138.553000
 11
138.424000
 20
-2.087000
 21
-2.011000
  0
LINE
 10
138.424000
 11
138.300000
 20
-2.011000
 21
-1.926000
  0
LINE
 10
138.300000
 11
138.182000
 20
-1.926000
 21
-1.835000
  0
LINE
 10
138.182000
 11
138.070000
 20
-1.835000
 21
-1.736000
  0
LINE
 10
138.070000
 11
137.964000
 20
-1.736000
 21
-1.630000
  0
LINE
 10
137.964000
 11
137.865000
 20
-1.630000
 21
-1.518000
  0
LINE
 10
137.865000
 11
137.774000
 20
-1.518000
 21
-1.400000
  0
LINE
 10
137.774000
 11
137.689000
 20
-1.400000
 21
-1.276000
  0
LINE
 10
137.689000
 11
137.613000
 20
-1.276000
 21
-1.147000
  0
LINE
 10
137.613000
 11
137.545000
 20
-1.147000
 21
-1.014000
  0
LINE
 10
137.545000
 11
137.486000
 20
-1.014000
 21
-0.877000
  0
LINE
 10
137.486000
 11
137.435000
 20
-0.877000
 21
-0.736000
  0
LINE
 10
137.435000
 11
137.394000
 20
-0.736000
 21
-0.592000
  0
LINE
 10
137.394000
 11
137.361000
 20
-0.592000
 21
-0.446000
  0
LINE
 10
137.361000
 11
137.338000
 20
-0.446000
 21
-0.298000
  0
LINE
 10
137.338000
 11
137.323000
 20
-0.298000
 21
-0.150000
  0
LINE
 10
137.323000
 11
137.319000
 20
-0.150000
 21
0.000000
  0
ENDSEC
  0
EOF
